<svg id="svg" version="1.1"  viewBox="0 0 900 636" xmlns="http://www.w3.org/2000/svg">
  <path d="M393.190 23.026 C 389.456 25.302,387.000 30.232,387.000 35.449 C 387.000 38.412,387.413 39.066,389.640 39.625 C 391.093 39.989,393.455 39.877,394.890 39.375 C 396.993 38.641,397.561 37.722,397.815 34.646 C 398.083 31.408,397.855 30.882,396.315 31.183 C 394.988 31.442,394.586 32.271,394.822 34.269 C 394.998 35.771,394.907 37.000,394.619 37.000 C 393.074 37.000,389.001 34.526,389.004 33.589 C 389.011 31.433,392.906 26.164,394.980 25.506 C 397.945 24.565,401.686 27.293,402.497 30.988 C 403.206 34.215,401.475 38.376,393.008 53.802 C 389.880 59.500,389.000 62.172,389.000 65.969 C 389.000 74.922,396.193 87.290,404.664 92.901 C 409.136 95.863,409.199 95.974,406.883 96.839 C 398.615 99.928,383.820 104.153,383.253 103.587 C 382.140 102.474,382.791 95.230,384.547 89.190 C 386.474 82.560,385.899 75.595,382.969 70.105 C 380.334 65.167,378.510 63.235,371.184 57.621 C 364.746 52.688,363.000 50.019,363.000 45.109 C 363.000 41.818,359.314 38.000,356.136 38.000 C 352.943 38.000,348.260 40.646,346.876 43.232 C 344.222 48.190,347.022 57.639,350.752 56.316 C 354.015 55.159,356.000 52.699,356.000 49.814 C 356.000 46.368,353.514 45.057,351.258 47.313 C 349.883 48.688,349.860 49.128,351.086 50.612 C 352.314 52.100,352.303 52.261,351.000 51.836 C 348.861 51.137,348.566 46.311,350.483 43.386 C 352.272 40.655,355.422 40.831,357.750 43.792 C 359.642 46.198,359.236 56.691,356.968 64.000 C 353.985 73.617,353.444 81.576,355.333 88.073 C 357.235 94.617,361.072 98.653,369.845 103.341 C 374.796 105.986,375.812 106.911,374.739 107.801 C 373.366 108.941,352.425 119.000,351.425 119.000 C 351.125 119.000,351.192 113.661,351.574 107.135 C 352.796 86.237,350.612 80.715,338.896 75.091 C 331.712 71.642,328.599 68.466,327.477 63.439 C 325.691 55.444,324.822 53.950,320.744 51.870 C 317.213 50.068,316.145 49.940,312.866 50.922 C 310.779 51.547,308.381 53.046,307.536 54.252 C 305.567 57.063,305.561 64.251,307.526 68.050 C 309.504 71.875,313.994 72.097,317.545 68.545 C 321.105 64.986,320.676 59.000,316.862 59.000 C 314.119 59.000,313.265 61.989,315.534 63.648 C 316.930 64.669,317.107 65.293,316.248 66.152 C 315.388 67.012,314.468 66.881,312.551 65.626 C 309.829 63.842,309.408 61.688,310.975 57.565 C 312.277 54.142,317.938 53.944,320.985 57.214 C 325.239 61.780,325.477 65.628,322.107 75.354 C 317.965 87.307,317.363 92.566,319.426 98.776 C 321.803 105.933,326.261 110.388,336.435 115.772 C 341.349 118.372,345.537 121.024,345.740 121.665 C 345.944 122.306,345.073 123.145,343.805 123.529 C 342.537 123.913,338.350 126.551,334.500 129.390 C 330.650 132.229,326.272 135.332,324.771 136.285 C 322.104 137.979,322.032 137.967,321.557 135.759 C 321.290 134.517,320.925 128.100,320.745 121.500 C 320.293 104.885,317.815 100.346,306.000 94.498 C 297.179 90.133,294.358 87.591,293.677 83.400 C 292.955 78.949,288.534 74.000,285.281 74.000 C 282.255 74.000,276.895 76.248,274.710 78.433 C 272.274 80.868,272.488 87.473,275.123 91.173 C 276.854 93.604,277.732 94.040,279.873 93.535 C 281.318 93.194,283.288 91.984,284.250 90.847 C 286.273 88.456,286.584 83.429,284.750 82.754 C 282.411 81.894,281.000 83.160,281.000 86.119 C 281.000 88.810,280.814 88.971,278.893 87.943 C 277.187 87.030,276.905 86.215,277.407 83.658 C 278.513 78.024,284.474 75.984,287.443 80.223 C 289.328 82.913,289.498 92.099,287.848 102.090 C 286.968 107.422,286.978 110.322,287.891 114.402 C 289.718 122.566,294.001 126.831,306.367 132.797 C 312.087 135.557,317.060 138.288,317.418 138.867 C 317.775 139.445,317.546 140.724,316.908 141.709 C 315.307 144.181,299.919 156.253,299.238 155.571 C 298.376 154.709,297.125 146.028,297.060 140.446 C 296.990 134.507,293.320 126.473,289.371 123.615 C 287.939 122.579,282.783 120.717,277.913 119.478 C 269.552 117.350,265.009 115.162,257.102 109.453 C 253.137 106.590,247.418 106.215,242.950 108.526 C 240.305 109.894,240.000 110.547,240.000 114.851 C 240.000 118.576,240.519 120.139,242.314 121.826 C 248.001 127.168,255.685 120.885,251.965 113.934 C 250.468 111.137,248.000 111.489,248.000 114.500 C 248.000 115.875,248.540 117.000,249.200 117.000 C 250.090 117.000,250.109 117.291,249.273 118.127 C 248.637 118.763,247.027 118.973,245.573 118.608 C 243.694 118.136,243.000 117.308,243.000 115.538 C 243.000 112.199,246.404 109.969,249.948 110.985 C 256.056 112.737,256.494 113.393,259.438 125.181 C 262.699 138.244,265.627 144.667,269.998 148.345 C 272.920 150.803,281.402 154.000,285.003 154.000 C 288.615 154.000,296.000 157.220,296.000 158.795 C 296.000 160.492,279.348 177.015,278.497 176.163 C 277.648 175.315,277.952 173.852,278.861 174.414 C 280.093 175.175,289.000 163.390,289.000 160.999 C 289.000 157.260,279.117 159.547,278.848 163.348 C 278.764 164.532,278.591 165.950,278.463 166.500 C 278.335 167.050,278.138 168.850,278.024 170.500 C 277.873 172.694,277.298 171.486,275.881 166.000 C 271.959 150.816,267.410 145.438,257.302 144.038 C 254.111 143.596,251.127 143.455,250.671 143.725 C 250.215 143.995,246.897 143.901,243.298 143.515 C 237.561 142.901,236.238 142.338,232.566 138.955 C 227.596 134.373,224.369 133.000,218.570 133.000 C 213.600 133.000,209.897 135.421,208.052 139.875 C 205.943 144.966,209.547 148.701,218.645 150.856 C 220.765 151.358,223.229 152.072,224.121 152.442 C 226.526 153.441,229.000 150.376,229.000 146.397 C 229.000 142.699,226.758 140.842,224.737 142.863 C 223.898 143.702,224.085 144.342,225.466 145.352 C 226.546 146.141,227.075 147.362,226.729 148.265 C 226.264 149.476,225.400 149.645,222.816 149.028 C 217.589 147.780,214.642 146.387,212.726 144.259 C 210.434 141.715,211.327 139.547,215.478 137.577 C 224.331 133.376,231.660 138.094,233.145 148.951 C 234.630 159.813,242.053 172.612,247.952 174.485 C 248.898 174.785,254.952 175.640,261.406 176.386 C 267.861 177.131,273.644 178.244,274.259 178.859 C 275.082 179.682,273.889 182.151,269.722 188.238 C 260.705 201.414,259.413 202.782,257.665 201.000 C 256.856 200.175,254.738 195.963,252.958 191.640 C 250.144 184.805,249.120 183.398,245.111 180.855 C 238.444 176.626,232.122 175.028,218.000 174.003 C 211.125 173.505,203.750 172.586,201.611 171.963 C 190.707 168.785,181.893 177.509,188.073 185.365 C 189.843 187.616,190.913 188.000,195.418 188.000 C 199.255 188.000,201.140 187.502,202.345 186.171 C 205.205 183.011,203.949 177.315,200.670 178.573 C 198.597 179.369,198.510 180.875,200.494 181.636 C 203.275 182.703,200.908 184.000,196.182 184.000 C 192.576 184.000,191.192 183.538,190.241 182.015 C 189.171 180.300,189.397 179.587,191.906 176.779 C 194.314 174.084,195.492 173.547,198.802 173.634 C 201.973 173.717,203.445 174.434,205.961 177.119 C 209.354 180.743,213.974 189.415,213.990 192.191 C 213.996 193.121,214.400 194.129,214.889 194.432 C 215.378 194.734,216.087 196.210,216.464 197.712 C 217.463 201.691,223.095 206.678,228.127 208.039 C 231.704 209.007,233.868 208.929,240.023 207.611 C 247.944 205.915,256.000 205.482,256.000 206.753 C 256.000 207.167,254.385 209.755,252.411 212.503 C 249.343 216.775,240.242 234.493,238.829 238.944 C 238.577 239.738,236.044 235.672,233.201 229.907 C 227.762 218.881,222.390 212.362,216.399 209.519 C 213.898 208.332,209.355 207.800,199.730 207.568 C 192.454 207.392,184.925 206.943,183.000 206.570 C 179.972 205.984,179.062 206.311,176.250 208.997 C 172.115 212.947,171.866 217.499,175.547 221.874 C 178.204 225.031,179.865 225.100,183.250 222.193 C 185.500 220.261,185.458 218.782,183.071 215.861 C 181.503 213.942,180.899 213.739,179.846 214.775 C 178.785 215.818,178.785 216.426,179.844 218.122 C 181.611 220.951,180.584 221.613,177.531 219.612 C 174.464 217.603,174.418 217.009,177.073 213.635 C 178.452 211.881,180.106 211.000,182.017 211.000 C 186.560 211.000,189.544 214.603,191.339 222.257 C 193.619 231.977,198.888 240.323,205.419 244.558 C 209.640 247.296,220.999 247.082,226.710 244.157 C 231.371 241.769,235.998 241.318,236.004 243.250 C 236.008 244.826,226.925 270.208,225.954 271.332 C 224.718 272.764,221.035 269.713,217.379 264.228 C 210.116 253.335,204.688 249.957,193.240 249.210 C 184.873 248.663,178.813 250.469,173.573 255.070 C 170.916 257.403,169.497 257.876,165.428 257.787 C 162.718 257.728,158.813 258.292,156.750 259.041 C 153.161 260.343,153.001 260.597,153.017 264.951 C 153.030 268.426,153.595 270.031,155.408 271.750 C 159.460 275.590,166.000 274.539,166.000 270.048 C 166.000 266.500,163.244 264.121,160.074 264.933 C 157.269 265.652,156.639 266.880,157.986 269.000 C 158.791 270.267,159.270 270.295,161.067 269.181 C 163.487 267.681,164.524 268.192,163.655 270.457 C 162.779 272.740,159.659 272.331,157.089 269.594 C 155.250 267.638,155.031 266.810,155.913 265.162 C 158.489 260.349,162.641 261.461,170.500 269.069 C 178.222 276.545,188.072 279.962,202.000 279.998 C 208.226 280.014,212.169 279.434,216.737 277.830 C 220.167 276.625,223.306 275.972,223.712 276.379 C 224.118 276.785,223.360 281.929,222.026 287.809 C 220.693 293.689,219.531 301.773,219.443 305.774 C 219.356 309.775,219.016 313.317,218.688 313.645 C 218.360 313.974,215.258 311.298,211.796 307.700 C 204.697 300.323,202.559 299.472,193.297 300.337 C 185.989 301.019,178.658 304.046,172.000 309.128 C 169.525 311.018,165.700 313.667,163.500 315.015 C 156.679 319.194,152.104 323.929,151.433 327.504 C 150.297 333.561,153.069 338.000,157.990 338.000 C 163.047 338.000,164.000 337.131,164.000 332.515 C 164.000 326.621,160.772 324.517,156.150 327.400 C 155.057 328.082,155.015 327.841,155.930 326.131 C 156.551 324.970,158.366 323.345,159.964 322.519 C 162.763 321.071,163.044 321.148,167.684 324.630 C 170.333 326.618,173.850 329.514,175.500 331.066 C 182.600 337.742,193.492 339.775,201.850 335.982 C 204.243 334.896,208.887 331.263,212.170 327.907 C 215.453 324.552,218.360 322.026,218.629 322.296 C 218.898 322.565,219.321 324.971,219.570 327.642 C 220.360 336.140,223.183 351.381,224.609 354.856 C 226.985 360.644,226.095 360.787,212.592 356.784 C 202.039 353.655,192.538 354.594,181.771 359.831 C 177.222 362.044,170.917 366.169,167.760 368.998 C 161.683 374.444,159.092 374.909,156.964 370.932 C 155.013 367.288,160.468 362.068,163.284 364.884 C 164.796 366.396,163.353 367.538,161.682 366.151 C 159.972 364.732,159.000 365.644,159.000 368.667 C 159.000 370.564,159.531 371.000,161.845 371.000 C 166.670 371.000,170.044 364.941,166.744 362.203 C 163.418 359.442,160.494 359.818,156.711 363.493 C 152.397 367.682,151.894 371.325,155.073 375.365 C 156.983 377.794,157.733 378.000,164.654 378.000 C 171.693 378.000,172.424 378.211,176.332 381.375 C 182.467 386.344,186.323 388.000,191.754 388.000 C 199.174 388.000,205.264 384.367,216.043 373.510 C 221.235 368.279,225.971 364.000,226.566 364.000 C 227.161 364.000,228.918 367.937,230.470 372.750 C 232.022 377.563,234.340 383.699,235.621 386.386 C 239.213 393.921,237.570 394.610,225.807 390.500 C 218.028 387.782,212.675 387.386,209.417 389.285 C 201.353 393.986,195.645 401.863,193.526 411.210 C 191.555 419.909,188.337 424.000,183.468 424.000 C 179.925 424.000,177.000 421.419,177.000 418.294 C 177.000 415.623,179.503 413.595,181.737 414.455 C 183.361 415.081,183.369 415.208,181.839 416.067 C 180.063 417.064,179.985 420.162,181.721 420.740 C 183.357 421.286,186.000 418.100,186.000 415.584 C 186.000 412.499,182.703 409.642,180.098 410.469 C 178.973 410.826,177.126 412.419,175.994 414.008 C 173.657 417.291,174.032 420.699,177.237 425.282 L 179.182 428.064 192.341 427.452 C 208.645 426.693,214.972 425.654,220.695 422.796 C 226.969 419.662,231.388 414.337,233.895 406.888 C 235.078 403.375,236.884 399.409,237.908 398.076 L 239.771 395.652 242.713 401.580 C 244.330 404.840,248.452 411.949,251.871 417.376 C 255.291 422.804,257.838 427.495,257.532 427.801 C 257.227 428.107,252.993 427.827,248.125 427.178 C 235.597 425.511,230.523 425.692,226.061 427.969 C 221.394 430.350,218.950 434.114,215.131 444.800 C 213.536 449.261,211.501 453.642,210.609 454.534 C 209.717 455.426,208.524 457.021,207.958 458.078 C 206.470 460.858,198.507 460.816,197.011 458.021 C 195.237 454.706,196.690 451.449,200.056 451.193 C 201.675 451.069,203.000 451.425,203.000 451.984 C 203.000 452.543,202.550 453.000,202.000 453.000 C 200.750 453.000,200.675 456.681,201.910 457.444 C 205.198 459.476,207.369 453.427,204.965 448.934 C 203.237 445.706,197.611 446.333,194.966 450.048 C 191.962 454.267,192.908 458.930,197.476 462.414 C 200.861 464.996,200.947 465.007,205.200 463.387 C 207.768 462.409,215.137 461.372,223.500 460.814 C 235.030 460.043,238.382 459.451,242.500 457.455 C 248.602 454.498,253.848 447.710,257.154 438.491 C 258.435 434.921,259.813 432.000,260.218 432.000 C 260.622 432.000,262.776 434.363,265.004 437.250 C 267.232 440.137,271.042 445.040,273.471 448.145 C 277.734 453.593,277.823 453.850,276.033 455.470 C 275.013 456.393,271.100 457.592,267.339 458.133 C 249.438 460.708,248.720 460.894,245.781 463.710 C 241.680 467.639,237.146 477.406,235.936 484.917 C 234.753 492.264,231.899 497.000,228.654 497.000 C 225.708 497.000,222.000 494.306,222.000 492.166 C 222.000 489.522,224.888 486.000,227.057 486.000 C 229.323 486.000,229.612 487.794,227.602 489.390 C 225.357 491.173,227.037 493.924,229.750 492.908 C 233.839 491.375,231.902 483.000,227.459 483.000 C 222.828 483.000,221.316 484.562,220.581 490.104 C 219.951 494.849,220.122 495.518,222.634 498.140 C 226.693 502.376,230.969 502.075,234.927 497.273 L 237.999 493.546 249.254 493.012 C 259.237 492.538,261.048 492.162,265.277 489.683 C 272.339 485.545,276.205 478.350,280.106 462.089 L 281.164 457.677 290.311 466.824 C 301.004 477.517,300.965 477.965,289.122 480.418 C 282.103 481.872,275.316 484.581,271.963 487.268 C 266.970 491.271,263.508 499.408,261.442 512.000 C 260.311 518.892,259.559 520.926,257.468 522.750 C 254.649 525.209,252.492 525.518,248.565 524.025 C 244.621 522.525,245.708 515.000,249.869 515.000 C 252.619 515.000,253.174 516.150,251.381 518.132 C 249.559 520.144,250.163 523.000,252.410 523.000 C 254.355 523.000,255.116 521.627,255.221 517.926 C 255.411 511.240,248.912 510.155,245.166 516.248 C 242.783 520.124,243.270 524.375,246.345 526.529 C 249.548 528.772,257.289 528.443,259.529 525.968 C 262.890 522.254,271.405 518.221,279.261 516.620 C 289.236 514.589,292.418 512.882,295.585 507.865 C 299.340 501.917,300.977 495.521,300.989 486.750 C 300.995 482.488,301.427 479.000,301.948 479.000 C 302.791 479.000,306.507 481.960,317.908 491.712 L 321.316 494.627 318.995 496.790 C 317.718 497.979,315.060 499.467,313.087 500.095 C 303.557 503.131,294.114 510.397,291.468 516.731 C 289.592 521.221,289.607 530.946,291.500 538.000 C 293.537 545.589,293.371 550.879,290.972 554.814 C 288.513 558.847,284.733 558.893,281.786 554.927 C 279.297 551.578,280.209 546.993,283.358 547.015 C 284.937 547.027,285.144 547.256,284.147 547.888 C 282.259 549.084,284.518 553.238,286.817 552.800 C 290.890 552.024,287.950 542.984,283.635 543.015 C 279.748 543.043,278.615 544.577,278.615 549.810 C 278.615 556.176,280.865 559.696,285.485 560.563 C 287.410 560.924,289.604 560.982,290.360 560.692 C 291.116 560.402,293.079 557.291,294.722 553.780 C 297.828 547.142,299.017 546.115,312.328 538.564 C 315.353 536.847,318.246 534.104,320.078 531.217 C 322.788 526.943,323.000 525.907,323.000 516.944 C 323.000 504.592,323.892 498.000,325.564 498.000 C 326.274 498.000,331.821 501.303,337.890 505.339 L 348.926 512.679 346.003 514.839 C 344.396 516.028,342.590 517.000,341.991 517.000 C 336.915 517.000,325.743 527.397,323.032 534.645 C 320.228 542.138,320.456 545.725,324.564 558.769 C 327.690 568.696,327.988 570.508,326.991 573.527 C 325.734 577.335,321.749 581.000,318.865 581.000 C 316.225 581.000,313.000 577.448,313.000 574.539 C 313.000 571.981,316.677 567.726,318.392 568.297 C 319.932 568.811,320.347 571.096,318.844 570.781 C 318.002 570.605,317.500 571.434,317.500 573.000 C 317.500 575.000,318.000 575.500,320.000 575.500 C 322.141 575.500,322.538 574.997,322.761 572.000 C 323.090 567.589,322.161 566.179,318.450 565.453 C 313.336 564.453,311.481 566.802,311.616 574.105 C 311.714 579.379,312.100 580.663,314.068 582.256 C 315.832 583.685,317.271 583.989,319.952 583.500 C 325.430 582.500,327.812 580.452,328.962 575.753 C 330.847 568.052,333.176 564.705,339.000 561.330 C 348.930 555.575,352.114 552.972,353.613 549.383 C 355.362 545.198,355.869 531.380,354.630 521.713 L 353.759 514.925 357.130 516.869 C 358.983 517.938,364.448 520.510,369.274 522.585 C 374.100 524.659,377.893 526.838,377.704 527.428 C 377.514 528.018,375.078 529.666,372.289 531.090 C 369.501 532.515,365.707 535.372,363.860 537.438 C 355.706 546.558,354.961 554.976,360.685 573.325 L 364.374 585.150 362.517 588.599 C 359.203 594.753,352.000 594.060,352.000 587.587 C 352.000 584.088,354.285 581.035,355.470 582.951 C 355.826 583.528,355.641 584.000,355.059 584.000 C 353.766 584.000,353.643 587.661,354.910 588.444 C 357.174 589.843,359.103 587.711,358.803 584.141 C 358.557 581.219,357.969 580.351,355.697 579.557 C 351.700 578.159,349.566 579.828,349.203 584.637 C 348.792 590.076,353.661 597.000,357.895 597.000 C 362.524 597.000,365.184 594.103,365.759 588.436 C 366.247 583.619,366.476 583.323,375.224 576.149 C 388.160 565.541,390.135 559.700,386.392 543.123 C 384.613 535.247,385.096 530.999,387.769 531.001 C 388.721 531.002,394.563 532.705,400.752 534.786 L 412.003 538.569 404.924 544.352 C 396.342 551.364,393.025 557.433,393.010 566.154 C 392.997 573.304,396.535 583.917,401.990 593.100 C 406.617 600.887,406.767 604.612,402.567 607.364 C 400.493 608.723,399.928 608.705,396.965 607.188 C 392.683 604.995,391.511 601.825,393.894 598.882 C 396.259 595.962,398.932 596.904,398.260 600.421 C 397.894 602.333,398.185 603.000,399.383 603.000 C 401.654 603.000,401.503 597.765,399.171 595.655 C 397.050 593.735,394.703 593.553,391.839 595.086 C 390.156 595.987,389.918 596.798,390.445 599.836 C 392.125 609.512,397.590 614.013,404.461 611.377 C 407.072 610.375,410.278 603.140,409.604 599.771 C 408.851 596.007,409.937 594.074,415.980 588.422 C 422.508 582.316,424.512 577.014,424.458 566.000 C 424.416 557.397,422.765 550.560,418.843 542.750 C 416.582 538.249,416.202 538.329,429.500 540.514 C 434.450 541.327,440.863 541.994,443.750 541.996 C 446.637 541.998,449.000 542.388,449.000 542.863 C 449.000 543.337,446.501 546.375,443.447 549.613 C 435.895 557.619,434.571 560.302,434.608 567.517 C 434.646 574.803,438.025 582.864,444.066 590.078 L 448.151 594.957 447.006 600.472 C 445.669 606.910,446.190 609.168,449.782 612.499 C 452.734 615.236,455.290 615.071,460.750 611.790 C 463.495 610.140,464.000 609.252,464.000 606.073 C 464.000 601.735,461.626 599.000,457.860 599.000 C 454.390 599.000,450.675 602.663,451.401 605.369 C 451.715 606.541,451.979 607.837,451.986 608.250 C 452.008 609.458,456.489 609.111,457.800 607.800 C 459.783 605.817,459.263 603.698,456.943 604.305 C 455.634 604.647,455.028 604.416,455.276 603.671 C 455.491 603.027,456.754 602.500,458.083 602.500 C 461.668 602.500,462.032 607.278,458.618 609.515 C 453.120 613.117,448.065 608.796,449.408 601.640 C 449.798 599.561,452.920 593.781,456.431 588.638 C 464.931 576.188,466.000 573.911,466.000 568.246 C 466.000 562.016,462.406 554.700,455.791 547.462 L 450.799 542.000 456.150 542.000 C 459.092 542.000,465.027 541.325,469.338 540.500 C 479.404 538.574,483.000 538.567,483.000 540.473 C 483.000 543.006,478.699 550.932,477.670 550.296 C 477.132 549.963,476.965 550.134,477.299 550.675 C 477.633 551.216,477.253 553.832,476.454 556.488 C 472.710 568.926,475.761 580.756,485.204 590.430 C 490.277 595.626,491.068 596.931,490.702 599.495 C 490.152 603.347,491.684 608.026,494.223 610.250 C 496.988 612.671,502.500 612.500,505.088 609.912 C 509.522 605.478,511.620 595.836,508.418 594.607 C 503.267 592.630,496.667 596.311,497.195 600.866 C 497.686 605.109,501.711 604.080,503.607 599.226 C 503.666 599.076,504.453 599.237,505.357 599.583 C 507.692 600.479,507.390 603.285,504.686 605.826 C 501.491 608.827,497.650 608.641,495.514 605.381 C 493.306 602.012,494.042 598.253,498.047 592.432 C 503.637 584.306,507.399 574.997,507.835 568.207 C 508.445 558.698,506.400 554.474,496.923 545.670 C 492.565 541.621,489.000 538.014,489.000 537.654 C 489.000 537.295,490.238 536.994,491.750 536.986 C 493.262 536.978,498.745 535.428,503.933 533.540 C 509.122 531.653,513.734 530.336,514.183 530.613 C 515.566 531.468,515.071 538.116,513.001 546.500 C 510.201 557.839,511.409 563.020,518.749 571.144 C 520.749 573.358,524.436 576.544,526.943 578.224 C 532.368 581.860,534.000 583.726,534.000 586.290 C 534.000 589.165,536.741 594.357,539.004 595.771 C 543.420 598.529,551.024 592.201,550.986 585.800 C 550.955 580.553,549.920 579.000,546.455 579.000 C 543.256 579.000,540.000 581.087,540.000 583.137 C 540.000 584.908,542.039 588.000,543.206 588.000 C 543.831 588.000,545.165 587.255,546.171 586.345 C 547.898 584.782,548.000 584.834,548.000 587.288 C 548.000 591.020,544.655 593.124,540.840 591.794 C 538.969 591.142,538.071 590.257,538.403 589.393 C 538.692 588.640,538.382 588.131,537.714 588.262 C 535.285 588.738,535.938 582.690,539.430 572.367 C 542.224 564.105,543.000 560.237,543.000 554.563 C 543.000 544.006,540.613 539.951,530.459 533.260 C 526.085 530.377,522.391 527.672,522.249 527.248 C 522.108 526.825,525.932 524.737,530.746 522.609 C 535.561 520.481,540.694 517.898,542.154 516.870 C 543.614 515.841,545.207 515.000,545.693 515.000 C 546.191 515.000,546.260 518.168,545.851 522.250 C 543.526 545.437,545.566 552.387,556.367 558.077 C 567.069 563.716,567.811 564.467,569.166 571.026 C 570.815 579.009,573.262 581.845,579.178 582.631 C 582.914 583.127,584.537 582.831,587.241 581.160 C 592.449 577.941,593.726 574.831,591.950 569.693 C 590.508 565.522,590.471 565.498,585.030 565.190 C 580.732 564.947,579.287 565.255,578.280 566.631 C 576.449 569.136,576.603 575.000,578.500 575.000 C 580.921 575.000,581.481 574.591,581.237 573.000 C 580.568 568.628,585.853 567.988,588.091 572.169 C 588.996 573.862,588.713 574.691,586.403 577.102 C 583.165 580.481,580.700 580.724,576.377 578.088 C 572.011 575.426,571.570 571.338,574.695 562.500 C 578.625 551.385,579.000 549.811,579.000 544.435 C 579.000 532.411,571.947 522.695,558.197 515.779 L 550.894 512.106 554.197 510.405 C 556.014 509.469,558.625 508.042,560.000 507.233 L 562.500 505.763 560.092 507.755 L 557.684 509.747 560.472 511.573 C 563.138 513.320,569.268 514.066,570.536 512.797 C 572.063 511.271,574.066 500.784,573.062 499.574 C 571.928 498.209,572.620 497.000,574.536 497.000 C 575.391 497.000,575.870 500.858,576.191 510.315 C 576.569 521.459,577.007 524.383,578.880 528.251 C 581.721 534.121,586.880 538.777,595.647 543.384 C 600.876 546.131,602.902 547.814,603.928 550.261 L 605.287 553.500 606.017 548.000 C 606.419 544.975,607.511 539.612,608.445 536.082 C 611.013 526.368,609.320 517.220,603.556 509.662 C 602.155 507.826,601.232 506.101,601.505 505.829 C 601.777 505.556,601.424 505.333,600.719 505.333 C 600.015 505.333,598.126 504.471,596.522 503.417 C 594.918 502.363,590.432 500.125,586.553 498.445 C 582.642 496.750,579.500 494.767,579.500 493.993 C 579.500 492.307,595.535 479.000,597.566 479.000 C 598.618 479.000,599.000 480.316,599.000 483.935 C 599.000 491.457,601.777 503.053,604.602 507.329 C 607.452 511.641,610.529 513.187,621.003 515.569 C 628.020 517.165,638.313 522.263,640.961 525.454 C 641.819 526.486,643.974 527.000,647.448 527.000 C 651.594 527.000,653.093 526.530,654.826 524.686 C 657.375 521.972,657.610 518.080,655.474 513.950 C 654.240 511.563,653.301 511.000,650.556 511.000 C 648.690 511.000,646.452 511.273,645.582 511.607 C 643.387 512.449,643.582 517.266,645.926 520.139 L 647.853 522.500 650.027 520.184 C 652.659 517.380,653.402 517.812,652.053 521.361 C 650.761 524.759,646.204 524.945,642.510 521.750 C 640.449 519.968,639.709 518.088,638.953 512.716 C 636.949 498.477,631.121 486.826,624.356 483.536 C 622.627 482.695,617.814 481.357,613.660 480.562 C 606.385 479.170,601.000 476.749,601.000 474.870 C 601.000 474.375,602.546 472.290,604.436 470.235 C 607.003 467.445,608.162 466.786,609.018 467.632 C 609.879 468.483,609.833 469.299,608.832 470.913 C 607.702 472.735,607.728 473.206,609.000 474.014 C 610.789 475.150,617.193 474.174,618.235 472.606 C 619.306 470.993,619.164 460.219,618.062 459.538 C 617.546 459.220,615.697 461.034,613.952 463.569 C 611.915 466.530,610.435 467.835,609.815 467.215 C 609.196 466.596,610.577 464.612,613.675 461.671 C 619.194 456.432,618.573 455.898,622.095 468.916 C 626.701 485.937,632.421 490.555,650.158 491.570 C 661.037 492.193,663.240 493.033,665.749 497.516 C 666.225 498.367,668.301 499.337,670.362 499.671 C 677.053 500.757,681.000 496.863,681.000 489.175 C 681.000 483.977,678.682 481.000,674.634 481.000 C 669.645 481.000,667.797 482.872,668.177 487.540 C 668.440 490.766,668.917 491.559,670.750 491.820 C 672.461 492.063,673.000 491.644,673.000 490.070 C 673.000 488.897,672.350 488.000,671.500 488.000 C 670.675 488.000,670.000 487.577,670.000 487.059 C 670.000 485.487,671.978 484.778,674.557 485.425 C 677.679 486.209,677.894 490.664,674.961 493.811 C 670.354 498.757,666.799 495.101,662.362 480.852 C 656.349 461.543,654.162 459.533,637.448 457.949 C 627.441 457.001,622.000 455.319,622.000 453.173 C 622.000 451.142,628.126 442.960,629.166 443.602 C 629.867 444.036,630.035 443.866,629.601 443.163 C 628.810 441.884,636.832 431.144,638.643 431.056 C 639.916 430.994,641.000 433.236,641.000 435.933 C 641.000 438.564,645.717 447.025,649.331 450.876 C 654.390 456.265,659.126 457.831,673.737 458.943 C 681.219 459.512,688.554 460.638,690.901 461.577 C 697.175 464.087,705.027 461.011,706.410 455.502 C 707.048 452.962,704.807 447.218,702.610 445.765 C 699.177 443.494,692.000 446.173,692.000 449.726 C 692.000 452.897,693.719 456.000,695.476 456.000 C 697.459 456.000,698.437 454.037,697.113 452.713 C 695.328 450.928,695.814 450.000,698.531 450.000 C 701.429 450.000,702.492 451.904,701.593 455.487 C 700.781 458.722,697.116 459.628,693.147 457.576 C 689.672 455.779,686.378 450.590,682.475 440.766 C 681.004 437.062,678.158 432.182,676.150 429.921 C 671.604 424.800,667.248 424.083,654.832 426.409 C 648.531 427.590,645.475 427.751,643.513 427.005 L 640.826 425.983 642.860 422.742 C 647.088 416.006,654.218 402.855,655.731 399.004 C 656.596 396.802,657.899 395.000,658.626 395.000 C 660.210 395.000,662.243 398.851,663.905 405.000 C 665.788 411.964,670.999 418.363,677.295 421.443 C 681.901 423.697,684.907 424.263,697.112 425.177 C 717.060 426.671,718.080 426.599,720.750 423.500 C 723.686 420.092,723.812 413.812,721.000 411.000 C 718.469 408.469,714.819 408.437,712.566 410.927 C 711.036 412.617,710.987 413.201,712.168 415.665 C 713.769 419.006,717.000 420.081,717.000 417.273 C 717.000 416.243,716.511 414.911,715.913 414.313 C 715.130 413.530,715.148 413.027,715.976 412.515 C 717.327 411.680,721.000 414.706,721.000 416.655 C 721.000 418.987,717.116 422.000,714.111 422.000 C 709.637 422.000,707.209 419.212,705.404 412.000 C 703.547 404.580,702.964 403.272,698.637 396.825 C 692.142 387.147,685.462 385.202,671.757 389.000 C 665.085 390.849,660.000 391.546,660.000 390.611 C 660.000 389.434,669.324 363.362,670.000 362.646 C 671.375 361.192,674.078 363.466,679.391 370.547 C 683.293 375.748,685.990 378.171,690.804 380.798 C 702.192 387.013,712.588 386.201,722.462 378.323 C 725.588 375.829,726.676 375.538,731.791 375.830 C 738.889 376.234,741.769 374.330,742.446 368.782 C 742.848 365.494,742.495 364.729,739.402 362.180 C 733.780 357.545,727.437 359.967,730.184 365.698 C 731.939 369.360,735.923 369.539,737.670 366.036 C 738.700 363.969,739.001 363.839,739.534 365.227 C 740.800 368.528,739.614 370.487,736.147 370.820 C 732.465 371.174,728.636 368.961,721.000 362.063 C 710.943 352.979,704.005 351.687,685.651 355.480 C 678.584 356.941,672.549 357.882,672.240 357.573 C 671.509 356.842,673.779 343.732,675.592 338.215 C 676.366 335.858,677.000 331.246,677.000 327.965 C 677.000 320.123,678.482 320.137,687.000 328.060 C 695.672 336.126,698.090 337.323,704.619 336.782 C 710.265 336.313,713.295 334.552,727.422 323.523 C 734.573 317.939,736.862 317.423,742.250 320.176 C 745.415 321.793,743.868 328.000,740.300 328.000 C 739.481 328.000,739.000 326.705,739.000 324.500 C 739.000 321.765,738.597 321.000,737.155 321.000 C 734.003 321.000,732.145 324.077,732.644 328.471 C 733.144 332.866,734.231 333.962,738.115 333.985 C 742.815 334.012,749.000 327.271,749.000 322.122 C 749.000 319.348,744.957 316.482,737.582 314.027 C 733.016 312.508,729.369 310.276,724.386 305.949 C 715.412 298.158,710.898 296.000,703.574 296.000 C 696.490 296.000,687.604 300.308,682.578 306.180 C 678.096 311.416,677.000 311.104,677.000 304.589 C 677.000 301.612,675.875 294.416,674.500 288.597 C 673.125 282.778,672.000 277.124,672.000 276.033 C 672.000 273.772,672.914 273.842,686.167 277.110 C 696.089 279.556,705.228 279.533,710.702 277.048 C 713.014 275.999,718.346 272.204,722.553 268.615 C 730.921 261.475,736.108 259.015,738.539 261.032 C 741.571 263.549,739.254 270.000,735.318 270.000 C 734.211 270.000,734.433 269.470,736.107 268.115 C 738.103 266.498,738.244 265.999,737.095 264.615 C 735.271 262.417,732.684 262.586,730.455 265.050 C 728.647 267.047,728.647 267.190,730.457 270.550 C 732.111 273.621,732.764 273.999,736.407 273.993 C 739.915 273.987,740.822 273.514,742.750 270.681 C 745.752 266.272,745.673 261.582,742.545 258.455 C 740.464 256.373,739.143 256.000,733.854 256.000 C 728.397 256.000,726.796 255.513,721.058 252.110 C 708.416 244.611,701.450 244.321,691.328 250.871 C 686.159 254.215,683.581 256.793,673.782 268.410 C 671.317 271.333,669.000 271.309,669.000 268.361 C 669.000 266.276,663.549 250.996,661.075 246.147 C 659.290 242.648,659.232 242.052,660.570 240.942 C 661.806 239.916,663.871 240.285,671.902 242.967 C 680.873 245.964,682.058 246.139,685.611 245.000 C 694.032 242.299,697.696 237.673,703.035 223.000 C 707.654 210.303,710.788 207.356,716.676 210.169 C 721.374 212.414,720.692 219.000,715.763 219.000 C 713.875 219.000,713.855 218.871,715.385 216.535 C 717.509 213.293,717.441 213.000,714.559 213.000 C 711.461 213.000,710.683 214.282,711.507 218.033 C 712.349 221.863,715.199 223.492,718.250 221.885 C 721.399 220.227,721.967 219.086,721.985 214.385 C 721.995 211.679,721.269 209.340,719.864 207.555 L 717.729 204.840 702.114 205.499 C 684.850 206.227,681.624 206.893,674.926 211.106 C 669.053 214.800,664.702 220.909,662.010 229.240 C 658.846 239.036,658.134 239.120,653.486 230.242 C 651.294 226.056,647.362 218.933,644.750 214.414 C 642.137 209.895,640.000 205.874,640.000 205.479 C 640.000 204.602,649.659 205.472,656.500 206.965 C 663.681 208.532,670.202 206.798,674.939 202.061 C 677.589 199.411,679.542 195.817,681.928 189.200 C 684.517 182.019,686.086 179.252,689.123 176.508 C 693.333 172.704,694.573 172.393,698.453 174.161 C 702.442 175.978,701.733 183.000,697.560 183.000 C 694.372 183.000,693.745 181.939,695.674 179.808 C 696.983 178.362,697.087 177.687,696.149 176.749 C 694.045 174.645,691.454 177.244,691.786 181.126 C 692.146 185.342,692.584 185.751,697.604 186.553 C 701.531 187.181,701.807 187.049,704.003 183.495 C 705.916 180.400,706.149 179.179,705.400 176.174 C 703.611 169.003,694.155 165.835,688.856 170.631 C 687.395 171.953,683.580 172.611,672.230 173.498 C 652.452 175.045,649.352 176.761,643.512 189.405 C 641.581 193.587,640.000 197.401,640.000 197.882 C 640.000 198.362,639.383 199.267,638.628 199.894 C 637.529 200.806,636.062 199.390,631.244 192.766 C 627.937 188.220,624.279 183.643,623.115 182.595 C 618.176 178.147,620.898 176.527,636.552 174.598 C 649.648 172.983,652.082 171.816,655.708 165.413 C 656.922 163.269,659.109 157.686,660.567 153.007 C 665.254 137.964,667.683 134.926,672.250 138.392 C 675.450 140.821,673.993 148.000,670.300 148.000 C 668.396 148.000,668.713 145.261,670.750 144.112 C 672.099 143.351,672.229 142.851,671.317 141.929 C 669.903 140.501,667.186 141.352,666.369 143.480 C 665.131 146.707,666.854 149.749,670.240 150.310 C 672.947 150.759,673.976 150.342,676.306 147.847 C 679.918 143.980,679.772 138.644,675.977 135.823 C 672.509 133.246,666.042 132.266,664.564 134.095 C 663.939 134.868,661.953 136.850,660.151 138.500 C 657.033 141.355,656.357 141.524,646.114 142.000 C 636.773 142.434,634.863 142.830,631.637 145.000 C 624.818 149.587,621.290 156.450,618.529 170.500 L 617.350 176.500 608.164 167.041 C 597.458 156.018,597.259 156.680,612.417 152.911 C 627.084 149.264,632.268 142.777,636.506 122.766 C 637.778 116.761,639.029 111.638,639.285 111.381 C 640.237 110.430,646.975 109.777,649.446 110.397 C 651.242 110.848,652.000 111.709,652.000 113.297 C 652.000 116.748,649.368 119.909,647.007 119.292 C 644.615 118.666,644.464 117.689,646.500 116.000 C 648.365 114.452,648.472 111.000,646.655 111.000 C 644.898 111.000,642.000 114.234,642.000 116.194 C 642.000 118.551,645.919 123.000,647.996 123.000 C 649.014 123.000,651.231 121.835,652.923 120.411 C 655.380 118.344,656.000 117.045,656.000 113.963 C 656.000 108.683,652.854 105.480,647.318 105.125 C 642.544 104.819,640.726 105.619,632.824 111.509 C 628.327 114.861,625.213 116.213,617.824 118.019 C 609.744 119.994,608.007 120.809,604.807 124.132 C 600.477 128.626,598.424 134.796,597.285 146.735 L 596.500 154.970 590.878 150.735 C 587.786 148.406,583.401 144.866,581.133 142.868 C 577.651 139.802,577.236 139.049,578.461 138.032 C 579.259 137.370,580.393 137.125,580.981 137.488 C 581.569 137.851,581.926 137.656,581.775 137.054 C 581.624 136.452,585.979 133.606,591.453 130.730 C 605.014 123.604,607.500 120.186,607.500 108.667 C 607.500 104.175,606.729 97.125,605.787 93.000 C 604.111 85.666,604.119 85.406,606.126 81.250 C 607.721 77.947,608.730 77.000,610.655 77.000 C 616.000 77.000,619.311 81.682,617.009 85.983 C 615.782 88.275,613.040 87.629,613.624 85.185 C 614.202 82.762,612.619 80.825,610.670 81.573 C 607.899 82.637,608.474 88.609,611.541 90.619 C 616.861 94.105,621.128 88.474,618.931 80.867 C 617.424 75.645,615.551 73.818,611.593 73.705 C 607.570 73.591,603.000 77.082,603.000 80.270 C 603.000 84.350,599.797 87.557,591.672 91.611 C 578.179 98.344,575.028 104.988,574.985 126.791 C 574.976 131.031,574.605 135.074,574.160 135.775 C 573.563 136.716,570.366 135.143,561.926 129.754 C 555.642 125.742,550.500 121.848,550.500 121.100 C 550.500 120.352,552.623 119.063,555.218 118.235 C 557.812 117.407,562.537 114.653,565.718 112.114 C 577.265 102.898,579.187 93.014,573.110 74.112 C 570.067 64.645,569.882 63.388,571.024 59.926 C 573.178 53.401,581.215 51.850,583.888 57.443 C 585.100 59.979,585.096 60.739,583.859 62.943 C 582.359 65.614,578.968 66.404,578.250 64.250 C 578.021 63.563,578.546 63.000,579.417 63.000 C 581.840 63.000,581.340 59.322,578.826 58.665 C 575.788 57.870,574.995 58.632,575.032 62.309 C 575.075 66.659,577.089 69.000,580.789 69.000 C 587.118 69.000,588.648 63.701,584.860 54.895 L 582.719 49.920 578.110 50.547 C 572.313 51.336,569.486 54.273,568.557 60.471 C 567.649 66.524,564.310 70.192,555.487 74.830 C 544.220 80.753,542.523 85.957,544.387 108.854 L 545.231 119.208 542.865 118.496 C 540.379 117.747,522.057 108.286,520.726 107.063 C 520.300 106.672,522.454 105.086,525.512 103.538 C 531.825 100.344,538.343 93.521,540.065 88.304 C 540.752 86.221,541.065 81.036,540.828 75.638 C 540.490 67.945,539.918 65.415,537.213 59.638 C 533.288 51.256,533.081 46.828,536.455 43.455 C 537.805 42.105,539.504 41.000,540.232 41.000 C 542.675 41.000,546.000 44.093,546.000 46.366 C 546.000 49.316,543.570 52.731,542.594 51.151 C 542.202 50.518,542.359 50.000,542.941 50.000 C 544.529 50.000,544.216 47.424,542.450 45.958 C 541.168 44.895,540.606 44.965,539.207 46.364 C 537.617 47.954,537.635 48.282,539.507 51.778 C 541.543 55.580,544.295 56.791,546.969 55.062 C 547.997 54.397,548.412 52.395,548.355 48.391 C 548.279 43.154,547.985 42.433,544.886 39.862 C 543.024 38.318,540.467 37.042,539.205 37.027 C 536.554 36.996,532.069 41.069,531.852 43.705 C 531.771 44.692,531.612 46.175,531.500 47.000 C 531.388 47.825,531.229 49.223,531.148 50.106 C 531.067 50.990,528.232 53.690,524.848 56.106 C 515.817 62.557,513.151 65.673,511.343 71.893 C 509.854 77.014,509.857 78.180,511.381 86.971 C 513.506 99.235,513.520 104.000,511.430 104.000 C 510.567 104.000,506.630 102.683,502.680 101.074 C 498.731 99.465,493.587 97.851,491.250 97.486 C 488.913 97.122,487.000 96.414,487.000 95.912 C 487.000 95.410,487.360 95.000,487.800 95.000 C 488.241 95.000,491.135 92.742,494.232 89.981 C 501.703 83.322,506.000 74.907,506.000 66.933 C 506.000 61.064,505.234 59.217,494.651 39.581 C 491.385 33.520,491.290 30.016,494.314 27.174 C 497.452 24.226,499.349 24.438,502.411 28.077 C 505.386 31.613,505.622 33.236,503.471 35.386 C 501.315 37.542,499.194 36.434,499.765 33.450 C 500.100 31.698,499.789 31.000,498.676 31.000 C 496.514 31.000,495.700 32.668,496.433 35.591 C 497.189 38.601,500.935 40.484,504.426 39.608 C 506.643 39.051,507.000 38.419,507.000 35.046 C 507.000 24.442,499.565 18.300,492.548 23.108 C 489.009 25.532,487.286 30.175,488.502 34.006 C 488.837 35.061,488.570 36.954,487.909 38.212 C 486.356 41.167,481.313 46.980,480.772 46.438 C 480.542 46.209,478.700 48.819,476.677 52.238 C 473.336 57.887,473.000 59.128,473.000 65.823 C 473.000 74.197,474.935 81.865,479.187 90.336 C 481.697 95.339,481.857 96.096,480.308 95.644 C 475.456 94.228,458.222 92.253,453.270 92.545 C 449.229 92.783,449.090 92.699,450.178 90.647 C 450.804 89.466,453.531 86.025,456.237 83.000 C 463.172 75.250,464.295 72.740,463.805 66.090 C 463.306 59.315,459.614 51.068,454.399 45.077 C 450.652 40.774,450.557 40.475,450.858 33.966 C 451.147 27.706,450.992 27.139,448.449 25.138 C 441.323 19.533,431.476 26.219,435.474 33.949 C 437.512 37.891,439.120 38.531,442.689 36.820 C 445.968 35.249,446.687 30.756,443.750 30.190 C 442.495 29.949,442.000 30.501,442.000 32.141 C 442.000 34.237,441.866 34.294,440.402 32.831 C 439.130 31.558,439.035 30.803,439.938 29.117 C 441.545 26.112,443.721 26.493,445.957 30.170 C 447.699 33.035,447.749 33.664,446.477 36.709 C 445.703 38.562,442.857 42.648,440.153 45.789 C 433.068 54.019,431.571 57.361,431.548 65.000 C 431.525 72.704,434.631 79.272,441.771 86.619 C 444.196 89.113,445.920 91.414,445.602 91.731 C 445.285 92.048,439.732 92.649,433.263 93.065 C 426.793 93.482,419.955 94.305,418.066 94.894 C 416.178 95.484,414.424 95.758,414.170 95.504 C 413.916 95.249,415.574 90.357,417.854 84.632 C 421.414 75.695,421.997 73.183,421.978 66.862 C 421.950 57.355,419.975 53.024,411.608 44.115 C 405.563 37.679,405.137 36.928,405.670 33.645 C 406.556 28.184,405.445 25.618,401.145 23.202 C 396.437 20.556,397.213 20.573,393.190 23.026 M423.637 86.089 C 421.082 88.337,419.245 90.587,419.555 91.089 C 420.325 92.335,426.186 92.234,431.557 90.881 C 436.802 89.561,437.414 87.257,433.365 84.073 C 429.759 81.236,428.962 81.401,423.637 86.089 M461.750 84.861 C 457.008 89.699,457.997 90.614,469.084 91.644 C 473.988 92.100,476.000 91.954,476.000 91.142 C 476.000 89.485,467.786 81.995,466.005 82.028 C 465.177 82.043,463.262 83.318,461.750 84.861 M389.877 91.299 C 387.868 92.829,384.009 99.051,384.004 100.769 C 384.001 101.654,384.832 101.830,386.750 101.349 C 391.136 100.249,400.000 95.943,400.000 94.912 C 400.000 93.858,394.054 89.992,392.500 90.036 C 391.950 90.051,390.769 90.620,389.877 91.299 M499.649 91.677 C 494.953 93.073,494.854 93.181,496.535 95.039 C 498.289 96.977,507.782 101.000,510.601 101.000 C 511.848 101.000,511.714 100.263,509.867 96.976 C 506.210 90.471,505.298 89.998,499.649 91.677 M355.512 106.963 C 354.569 109.804,354.057 112.390,354.376 112.709 C 355.165 113.499,362.941 110.398,365.908 108.110 L 368.316 106.253 365.856 104.641 C 364.503 103.754,362.008 102.752,360.312 102.412 C 357.332 101.816,357.171 101.969,355.512 106.963 M444.438 114.500 C 445.235 128.215,444.735 129.218,438.847 125.724 C 436.456 124.305,432.989 121.864,431.141 120.300 L 427.782 117.455 431.751 112.434 C 436.619 106.276,442.028 101.610,443.043 102.694 C 443.459 103.137,444.087 108.450,444.438 114.500 M460.926 109.491 C 467.950 116.684,468.182 117.072,466.736 119.241 C 465.908 120.484,463.041 122.622,460.365 123.993 C 457.689 125.364,454.775 127.065,453.890 127.772 C 452.468 128.907,452.205 128.511,451.640 124.389 C 450.453 115.732,451.248 102.000,452.936 102.000 C 453.306 102.000,456.902 105.371,460.926 109.491 M531.177 103.614 C 527.825 105.078,527.411 106.735,530.060 108.099 C 540.814 113.638,542.372 113.784,541.036 109.126 C 538.942 101.823,537.335 100.925,531.177 103.614 M427.985 103.750 C 427.976 104.162,427.558 105.149,427.056 105.943 C 426.296 107.145,425.681 107.176,423.374 106.124 C 421.162 105.117,420.896 104.678,422.052 103.947 C 423.801 102.840,428.006 102.701,427.985 103.750 M473.500 103.948 C 475.367 104.703,475.312 104.844,472.678 106.071 C 470.294 107.182,469.715 107.162,468.944 105.943 C 468.442 105.149,468.024 104.162,468.015 103.750 C 467.996 102.795,470.905 102.900,473.500 103.948 M413.820 111.750 C 417.435 114.362,420.797 116.778,421.291 117.117 C 422.507 117.954,419.951 122.635,415.620 127.500 C 411.357 132.290,410.983 131.966,408.144 121.016 C 405.315 110.102,404.873 107.000,406.148 107.000 C 406.752 107.000,410.204 109.138,413.820 111.750 M489.016 113.671 C 487.173 122.940,484.806 131.000,483.927 131.000 C 482.896 131.000,474.000 119.488,474.000 118.155 C 474.000 117.086,489.157 106.824,489.794 107.461 C 490.004 107.670,489.653 110.465,489.016 113.671 M396.099 112.750 C 396.676 114.263,398.037 119.231,399.122 123.792 C 400.207 128.352,401.347 132.740,401.654 133.542 C 402.468 135.662,398.201 135.421,390.718 132.926 C 382.531 130.196,381.250 128.942,382.914 125.287 C 384.786 121.177,392.946 110.000,394.075 110.000 C 394.611 110.000,395.522 111.237,396.099 112.750 M504.122 112.250 C 504.777 113.487,507.323 117.558,509.778 121.296 C 512.233 125.034,514.075 128.239,513.871 128.419 C 512.817 129.348,507.072 131.906,504.000 132.814 C 502.075 133.383,498.982 134.317,497.128 134.889 L 493.755 135.931 494.412 131.715 C 495.520 124.608,500.428 110.018,501.715 110.009 C 502.383 110.004,503.466 111.013,504.122 112.250 M377.465 118.413 C 376.185 120.367,374.927 121.000,372.326 121.000 C 370.096 121.000,369.119 120.616,369.555 119.910 C 370.246 118.792,378.237 115.028,378.830 115.541 C 379.011 115.698,378.397 116.991,377.465 118.413 M524.202 118.108 C 525.861 118.996,525.996 119.389,524.885 120.092 C 524.123 120.575,522.955 120.976,522.289 120.985 C 520.981 121.001,517.000 117.126,517.000 115.836 C 517.000 115.029,520.528 116.142,524.202 118.108 M560.619 121.627 L 555.737 123.137 559.619 125.706 C 561.753 127.119,564.963 129.652,566.752 131.335 C 569.116 133.560,570.304 134.096,571.103 133.297 C 572.608 131.792,569.068 120.595,567.000 120.317 C 566.175 120.207,563.303 120.796,560.619 121.627 M326.053 124.804 C 324.202 131.677,323.736 135.000,324.625 134.990 C 325.859 134.977,339.000 125.003,339.000 124.081 C 339.000 122.784,334.074 121.000,330.491 121.000 C 327.383 121.000,326.985 121.341,326.053 124.804 M538.000 124.362 C 538.000 125.688,531.515 140.078,529.767 142.633 C 527.212 146.364,525.955 145.612,523.459 138.856 C 522.574 136.460,521.402 133.669,520.855 132.653 C 520.309 131.637,520.077 130.589,520.341 130.325 C 521.047 129.620,535.287 124.217,536.750 124.100 C 537.438 124.045,538.000 124.163,538.000 124.362 M370.250 127.980 C 373.413 129.170,376.000 130.723,376.000 131.431 C 376.000 132.759,370.422 143.820,368.968 145.375 C 368.201 146.196,363.237 137.306,359.612 128.619 L 357.992 124.737 361.246 125.276 C 363.036 125.573,367.087 126.790,370.250 127.980 M428.435 125.895 C 428.740 126.388,428.279 127.063,427.412 127.395 C 424.659 128.452,423.681 128.089,425.000 126.500 C 426.412 124.798,427.625 124.585,428.435 125.895 M471.000 126.500 C 472.053 127.768,471.840 128.000,469.622 128.000 C 467.087 128.000,466.288 127.046,467.667 125.667 C 468.702 124.632,469.645 124.868,471.000 126.500 M554.087 142.626 L 556.675 149.904 551.788 150.952 C 549.101 151.528,544.685 152.000,541.976 152.000 L 537.050 152.000 538.093 149.250 C 538.667 147.738,541.227 142.958,543.782 138.629 C 548.376 130.847,548.445 130.784,549.964 133.053 C 550.809 134.315,552.664 138.623,554.087 142.626 M354.281 143.259 C 356.755 148.076,358.362 152.276,357.852 152.592 C 357.341 152.907,352.898 152.615,347.978 151.943 C 339.052 150.723,339.033 150.715,339.667 148.110 C 340.017 146.675,341.863 142.419,343.769 138.653 C 347.860 130.571,347.736 130.517,354.281 143.259 M482.500 138.015 C 515.534 145.252,553.168 165.093,579.325 189.061 C 598.226 206.380,619.977 240.482,626.805 263.500 C 634.123 288.169,636.466 303.405,635.493 320.000 C 632.823 365.534,614.180 408.232,582.115 442.250 C 579.135 445.413,576.359 448.000,575.948 448.000 C 575.537 448.000,573.659 449.462,571.774 451.250 C 567.291 455.504,565.325 456.967,554.000 464.477 C 535.224 476.927,521.791 483.168,494.636 492.058 L 476.773 497.906 453.136 498.561 L 429.500 499.216 412.500 494.685 C 390.758 488.890,380.100 485.100,366.833 478.445 C 354.028 472.021,344.254 465.878,333.500 457.495 C 323.953 450.053,308.831 435.082,309.602 433.835 C 309.903 433.348,309.745 433.074,309.251 433.225 C 307.751 433.684,295.662 418.462,291.061 410.323 C 290.203 408.804,288.989 407.004,288.365 406.324 C 286.300 404.074,277.011 385.228,273.561 376.290 C 265.115 354.410,261.648 335.972,261.661 313.000 C 261.672 293.551,263.303 284.541,270.458 264.429 C 276.053 248.701,290.413 219.513,296.240 212.025 C 302.468 204.021,325.447 181.526,335.129 173.954 C 346.163 165.325,349.359 163.349,363.000 156.720 C 391.530 142.857,420.572 134.710,440.035 135.110 C 443.909 135.190,447.248 135.085,447.456 134.877 C 448.496 133.838,473.757 136.099,482.500 138.015 M383.541 138.933 C 383.179 139.520,382.403 140.000,381.819 140.000 C 381.155 140.000,381.231 139.426,382.020 138.476 C 383.392 136.823,384.617 137.192,383.541 138.933 M513.935 138.421 C 514.902 139.587,514.746 139.746,513.068 139.308 C 511.943 139.013,511.269 138.374,511.570 137.886 C 512.303 136.701,512.554 136.757,513.935 138.421 M301.299 140.250 C 300.029 141.927,299.737 149.156,300.869 150.877 C 301.572 151.946,303.091 150.991,307.638 146.622 C 312.432 142.016,313.227 140.812,312.000 140.010 C 309.850 138.606,302.417 138.772,301.299 140.250 M568.350 142.570 C 570.441 144.071,570.406 144.105,567.113 143.807 C 564.924 143.608,563.195 142.694,562.222 141.221 C 560.746 138.986,560.770 138.962,563.459 139.984 C 564.966 140.557,567.167 141.721,568.350 142.570 M583.000 139.805 C 583.000 141.330,592.800 150.000,594.524 150.000 C 595.924 150.000,596.132 149.409,595.625 146.875 C 595.281 145.156,595.000 142.681,595.000 141.375 C 595.000 139.139,594.649 139.000,589.000 139.000 C 585.700 139.000,583.000 139.362,583.000 139.805 M333.758 142.250 C 332.800 143.702,331.072 144.604,328.887 144.792 L 325.500 145.084 329.500 142.573 C 334.482 139.446,335.669 139.356,333.758 142.250 M580.896 152.750 C 580.154 153.713,576.839 157.775,573.530 161.778 C 568.058 168.398,567.396 168.895,566.213 167.278 C 564.972 165.583,561.578 155.606,561.525 153.500 C 561.501 152.541,568.633 151.523,577.872 151.168 C 581.894 151.013,582.137 151.140,580.896 152.750 M334.610 153.277 C 335.196 153.862,329.968 170.003,329.212 169.944 C 328.820 169.913,325.167 165.791,321.094 160.783 L 313.688 151.679 323.977 152.306 C 329.636 152.650,334.421 153.087,334.610 153.277 M556.667 160.666 C 555.888 161.445,553.034 159.755,553.595 158.847 C 553.943 158.284,554.758 158.384,555.613 159.094 C 556.403 159.749,556.877 160.456,556.667 160.666 M607.000 160.237 C 607.000 162.638,608.687 165.321,613.960 171.308 C 616.191 173.841,616.503 173.938,617.146 172.308 C 618.370 169.206,618.080 161.311,616.700 160.166 C 615.986 159.573,613.511 158.785,611.200 158.416 C 607.210 157.778,607.000 157.869,607.000 160.237 M342.000 160.000 C 342.000 160.550,341.523 161.000,340.941 161.000 C 340.359 161.000,340.160 160.550,340.500 160.000 C 340.840 159.450,341.316 159.000,341.559 159.000 C 341.802 159.000,342.000 159.450,342.000 160.000 M320.500 177.358 C 320.500 177.907,319.375 178.691,318.000 179.101 C 316.625 179.510,312.508 180.735,308.852 181.823 C 305.195 182.911,301.263 184.099,300.114 184.464 C 298.212 185.067,298.078 184.829,298.619 181.813 C 299.739 175.577,301.977 167.299,303.584 163.454 L 305.190 159.610 312.845 167.985 C 317.055 172.591,320.500 176.809,320.500 177.358 M592.861 162.750 C 593.796 165.078,598.000 182.102,598.000 183.558 C 598.000 184.275,593.334 183.074,585.690 180.391 C 581.945 179.076,578.008 178.000,576.940 178.000 C 575.873 178.000,575.000 177.585,575.000 177.077 C 575.000 174.965,588.663 160.000,590.591 160.000 C 591.233 160.000,592.254 161.238,592.861 162.750 M285.000 162.809 C 285.000 164.268,282.179 167.512,281.501 166.834 C 280.658 165.991,282.751 162.000,284.035 162.000 C 284.566 162.000,285.000 162.364,285.000 162.809 M614.417 163.643 C 614.763 164.547,614.822 165.511,614.548 165.786 C 613.909 166.424,611.000 164.039,611.000 162.878 C 611.000 161.325,613.765 161.944,614.417 163.643 M612.000 182.196 C 612.000 183.601,608.726 183.062,606.829 181.345 C 605.823 180.435,605.000 178.546,605.000 177.149 L 605.000 174.608 608.500 178.000 C 610.425 179.866,612.000 181.754,612.000 182.196 M289.425 182.082 C 287.763 183.919,284.000 184.762,284.000 183.298 C 284.000 182.911,285.462 181.080,287.250 179.229 C 290.301 176.069,290.520 175.995,290.830 178.014 C 291.012 179.197,290.380 181.028,289.425 182.082 M629.000 181.909 C 629.000 184.302,631.843 190.124,634.900 193.988 L 636.868 196.477 638.058 193.488 C 638.712 191.845,639.474 188.363,639.751 185.750 C 640.191 181.594,640.020 180.999,638.377 180.989 C 637.345 180.983,634.813 180.699,632.750 180.358 C 629.378 179.801,629.000 179.957,629.000 181.909 M259.250 182.119 C 257.462 182.635,256.000 183.580,256.000 184.218 C 256.000 187.064,258.478 197.000,259.188 197.000 C 260.872 197.000,268.373 182.707,267.269 181.602 C 266.446 180.780,263.153 180.992,259.250 182.119 M596.887 192.104 C 598.125 195.656,597.613 195.705,593.344 192.449 C 589.224 189.306,589.103 188.215,592.939 188.778 C 595.091 189.094,596.147 189.983,596.887 192.104 M304.000 192.500 C 300.243 196.376,299.000 196.831,299.000 194.329 C 299.000 191.757,302.027 189.000,304.851 189.000 L 307.392 189.000 304.000 192.500 M620.794 194.626 C 622.055 194.963,622.920 195.747,622.715 196.369 C 622.128 198.152,608.023 208.000,606.056 208.000 C 605.086 208.000,604.289 204.272,603.396 195.565 L 602.731 189.072 610.616 191.543 C 614.952 192.902,619.532 194.289,620.794 194.626 M292.009 200.435 C 290.547 211.479,291.051 211.385,280.192 202.638 C 274.422 197.990,274.037 197.446,275.678 196.246 C 277.660 194.797,292.275 189.966,292.883 190.560 C 293.094 190.765,292.700 195.209,292.009 200.435 M631.985 216.250 C 631.976 222.438,631.621 228.049,631.194 228.720 C 630.612 229.637,629.311 229.376,625.959 227.671 C 618.465 223.857,612.000 219.852,612.000 219.022 C 612.000 218.589,615.038 216.273,618.750 213.876 C 622.462 211.478,626.620 208.500,627.990 207.258 C 629.359 206.016,630.822 205.000,631.240 205.000 C 631.658 205.000,631.993 210.063,631.985 216.250 M268.940 208.939 C 270.520 210.555,274.330 213.298,277.406 215.034 C 280.483 216.770,283.278 218.641,283.618 219.191 C 284.533 220.672,282.364 222.395,273.812 226.983 L 266.124 231.107 265.067 227.304 C 263.371 221.193,263.780 206.000,265.641 206.000 C 265.875 206.000,267.360 207.322,268.940 208.939 M649.000 213.523 C 649.000 214.812,654.705 229.635,655.701 230.933 C 656.603 232.109,658.105 228.800,659.091 223.465 L 660.190 217.522 656.883 214.761 C 653.256 211.733,649.000 211.065,649.000 213.523 M243.000 213.722 C 238.477 215.421,236.000 218.209,236.000 221.600 C 236.000 225.315,238.379 232.002,239.699 231.997 C 240.559 231.993,245.511 220.290,246.573 215.750 C 247.232 212.933,246.382 212.451,243.000 213.722 M645.995 232.818 C 645.998 233.726,645.066 233.471,643.000 232.000 C 639.954 229.831,639.481 228.515,640.653 225.463 C 641.178 224.094,641.763 224.518,643.648 227.631 C 644.936 229.759,645.992 232.093,645.995 232.818 M256.000 228.171 C 256.000 230.660,253.333 234.000,251.345 234.000 C 249.532 234.000,249.641 233.317,252.082 229.368 C 254.472 225.500,256.000 225.034,256.000 228.171 M625.834 238.976 C 626.327 242.291,624.061 241.049,622.397 237.092 L 620.992 233.751 623.246 235.240 C 624.486 236.059,625.650 237.740,625.834 238.976 M273.294 239.510 C 272.226 241.749,271.273 242.673,270.661 242.061 C 270.050 241.450,270.308 240.179,271.374 238.551 C 273.851 234.771,275.226 235.458,273.294 239.510 M641.000 239.343 C 642.925 240.507,646.685 242.894,649.355 244.649 L 654.211 247.840 651.355 249.289 C 648.867 250.552,640.719 252.984,633.095 254.739 C 630.795 255.268,630.720 255.124,631.355 251.396 C 631.721 249.253,632.305 244.903,632.655 241.729 C 633.367 235.250,633.951 235.083,641.000 239.343 M263.358 243.938 C 263.712 247.754,264.441 252.029,264.976 253.438 C 265.846 255.726,265.705 256.000,263.657 256.000 C 260.795 256.000,252.452 253.551,246.238 250.888 L 241.525 248.867 248.556 245.167 C 252.424 243.132,256.918 240.476,258.544 239.265 C 260.170 238.054,261.773 237.049,262.106 237.032 C 262.440 237.014,263.003 240.122,263.358 243.938 M667.903 245.658 C 667.611 248.197,668.207 255.159,669.110 259.750 C 670.250 265.550,672.283 266.668,674.168 262.531 C 674.786 261.174,675.746 260.343,676.301 260.686 C 676.886 261.048,676.999 260.807,676.568 260.111 C 676.161 259.452,676.360 258.271,677.011 257.487 C 678.737 255.407,675.341 249.040,671.250 246.686 C 669.462 245.657,667.956 245.195,667.903 245.658 M222.535 250.104 C 220.218 252.138,219.000 254.089,219.000 255.766 C 219.000 258.873,223.891 267.539,224.974 266.350 C 225.668 265.586,229.000 250.385,229.000 247.980 C 229.000 246.065,226.019 247.045,222.535 250.104 M657.000 261.480 C 657.000 262.332,653.851 270.353,651.363 275.840 L 648.941 281.179 644.720 277.401 C 638.338 271.688,633.688 266.968,634.117 266.638 C 634.539 266.314,648.313 262.381,651.500 261.675 C 654.443 261.023,657.000 260.932,657.000 261.480 M249.051 264.479 C 253.698 265.842,258.512 266.967,259.750 266.979 C 263.102 267.010,262.493 268.862,257.807 272.893 C 255.500 274.877,252.365 277.688,250.839 279.141 C 248.733 281.145,247.821 281.489,247.054 280.565 C 244.580 277.584,238.845 262.000,240.222 262.000 C 240.431 262.000,244.405 263.116,249.051 264.479 M663.011 281.250 C 663.017 281.938,663.310 284.300,663.661 286.500 L 664.301 290.500 662.150 288.595 C 659.978 286.671,659.496 284.478,660.607 281.582 C 661.329 279.701,662.995 279.471,663.011 281.250 M235.851 284.003 C 236.757 286.601,236.572 287.377,234.481 289.753 L 232.063 292.500 232.032 289.899 C 232.002 287.495,233.804 281.000,234.500 281.000 C 234.667 281.000,235.275 282.352,235.851 284.003 M676.373 286.750 C 678.045 299.410,677.916 299.099,680.856 297.535 C 685.353 295.142,691.342 289.362,690.588 288.142 C 690.200 287.514,688.488 287.000,686.785 287.000 C 685.023 287.000,682.276 285.923,680.411 284.500 C 678.608 283.125,676.821 282.000,676.439 282.000 C 676.058 282.000,676.028 284.137,676.373 286.750 M256.547 288.667 C 256.029 290.732,255.659 290.962,254.459 289.966 C 252.539 288.373,252.618 287.036,254.750 284.984 C 256.193 283.595,256.559 283.551,256.839 284.729 C 257.025 285.515,256.894 287.287,256.547 288.667 M642.500 286.333 C 642.500 287.800,642.082 289.113,641.572 289.250 C 640.506 289.537,638.910 284.424,639.791 283.542 C 641.042 282.292,642.500 283.794,642.500 286.333 M213.764 286.971 C 212.345 288.087,209.807 289.000,208.124 289.000 C 203.969 289.000,204.834 290.900,211.357 296.101 L 216.500 300.202 217.134 293.351 C 217.482 289.583,217.447 286.150,217.055 285.721 C 216.663 285.293,215.182 285.856,213.764 286.971 M668.000 304.252 C 671.277 305.288,667.927 305.794,655.500 306.139 C 640.326 306.560,640.961 307.397,646.782 294.654 L 650.366 286.808 658.433 295.293 C 662.870 299.959,667.175 303.991,668.000 304.252 M250.695 298.073 C 253.002 302.708,254.915 306.837,254.945 307.250 C 255.021 308.292,231.811 308.167,230.155 307.117 C 229.144 306.476,230.762 304.119,236.655 297.648 C 240.970 292.909,244.950 289.170,245.500 289.339 C 246.050 289.508,248.388 293.438,250.695 298.073 M666.334 326.575 C 667.460 327.007,666.513 328.556,662.510 332.825 C 659.583 335.946,655.815 340.075,654.137 342.000 C 651.153 345.424,651.054 345.456,649.582 343.500 C 647.732 341.042,643.000 329.532,643.000 327.489 C 643.000 326.261,644.914 326.000,653.918 326.000 C 659.923 326.000,665.510 326.259,666.334 326.575 M254.334 329.000 C 254.047 331.595,247.538 346.949,246.714 346.975 C 246.282 346.989,243.582 344.458,240.714 341.350 C 237.846 338.243,233.774 333.984,231.665 331.886 L 227.829 328.072 238.165 327.725 C 253.526 327.210,254.523 327.288,254.334 329.000 M158.269 333.000 C 159.790 333.000,160.106 332.512,159.668 330.837 C 159.140 328.819,159.214 328.785,160.765 330.337 C 162.303 331.874,162.305 332.123,160.799 333.630 C 158.223 336.206,153.982 334.695,154.068 331.231 C 154.134 328.544,154.153 328.537,155.220 330.750 C 155.817 331.988,157.189 333.000,158.269 333.000 M677.610 335.228 C 674.756 349.988,675.285 352.069,680.880 348.085 C 682.504 346.929,685.220 345.706,686.916 345.367 C 688.612 345.028,690.000 344.184,690.000 343.491 C 690.000 342.113,683.404 335.822,680.113 334.061 C 678.337 333.110,677.988 333.273,677.610 335.228 M211.800 339.776 C 209.214 341.824,207.215 343.915,207.357 344.422 C 207.593 345.268,219.460 352.000,220.714 352.000 C 221.183 352.000,220.610 344.935,219.619 338.500 C 219.137 335.373,216.895 335.739,211.800 339.776 M236.985 349.424 C 236.976 350.566,236.552 352.160,236.042 352.966 C 235.290 354.155,234.943 353.966,234.206 351.966 C 233.706 350.610,233.000 347.954,232.637 346.064 L 231.976 342.629 234.488 344.989 C 235.870 346.287,236.993 348.283,236.985 349.424 M642.794 345.634 C 642.956 346.721,642.092 348.486,640.874 349.555 C 638.811 351.368,638.706 351.375,639.330 349.668 C 639.699 348.661,640.000 346.711,640.000 345.335 C 640.000 342.377,642.347 342.628,642.794 345.634 M664.000 345.809 C 664.000 347.354,663.362 349.491,662.581 350.558 C 661.214 352.428,661.139 352.403,660.496 349.842 C 659.809 347.103,661.331 343.000,663.035 343.000 C 663.566 343.000,664.000 344.264,664.000 345.809 M257.457 348.486 L 258.179 352.472 256.090 350.581 C 253.721 348.438,253.467 346.933,255.183 345.217 C 256.647 343.753,256.582 343.660,257.457 348.486 M651.567 356.750 C 652.519 359.363,654.137 363.482,655.161 365.905 C 656.186 368.327,656.824 370.509,656.580 370.754 C 656.122 371.212,639.700 367.565,635.916 366.164 C 633.981 365.449,634.433 364.787,641.018 358.690 C 644.992 355.010,648.601 352.000,649.039 352.000 C 649.477 352.000,650.614 354.137,651.567 356.750 M262.791 367.058 C 263.135 367.872,241.888 373.221,241.169 372.502 C 240.899 372.233,241.858 368.972,243.299 365.256 C 244.741 361.540,246.395 357.215,246.976 355.644 L 248.031 352.787 255.266 359.577 C 259.245 363.312,262.631 366.678,262.791 367.058 M670.518 367.971 C 669.584 369.483,667.567 385.901,668.234 386.567 C 669.793 388.126,677.996 381.053,677.999 378.147 C 678.000 376.459,672.749 367.002,671.809 367.001 C 671.429 367.000,670.848 367.437,670.518 367.971 M222.157 373.226 C 220.421 376.261,219.000 379.221,219.000 379.805 C 219.000 381.116,227.276 388.000,228.853 388.000 C 229.484 388.000,230.000 387.024,230.000 385.832 C 230.000 381.618,227.801 371.110,226.566 369.421 C 225.453 367.899,224.962 368.323,222.157 373.226 M641.782 379.913 C 646.027 381.516,650.558 383.136,651.851 383.513 C 653.144 383.890,653.819 384.565,653.351 385.013 C 652.116 386.195,635.784 396.000,635.049 396.000 C 634.708 396.000,633.938 392.512,633.339 388.250 C 632.739 383.988,631.919 379.712,631.517 378.750 C 630.466 376.233,632.706 376.487,641.782 379.913 M265.383 388.097 C 264.699 393.101,263.982 397.352,263.789 397.544 C 262.996 398.337,244.500 387.169,244.500 385.897 C 244.500 385.002,247.852 383.583,254.000 381.874 C 267.878 378.018,266.840 377.450,265.383 388.097 M625.968 392.750 C 625.930 394.829,623.273 398.606,622.437 397.770 C 621.842 397.175,624.660 391.000,625.526 391.000 C 625.787 391.000,625.986 391.788,625.968 392.750 M274.965 394.934 C 276.652 398.086,276.293 399.227,274.000 398.000 C 272.900 397.411,272.000 396.045,272.000 394.965 C 272.000 392.450,273.626 392.433,274.965 394.934 M645.974 400.567 C 644.236 405.138,642.920 407.069,641.950 406.469 C 640.346 405.478,640.890 402.746,643.174 400.314 C 646.032 397.273,647.187 397.377,645.974 400.567 M257.367 404.296 C 257.662 405.425,257.543 406.995,257.101 407.784 C 256.486 408.884,255.797 408.407,254.149 405.741 C 252.967 403.829,252.000 401.764,252.000 401.153 C 252.000 399.229,256.773 402.024,257.367 404.296 M655.541 401.934 C 655.188 402.506,653.605 406.692,652.025 411.237 C 648.887 420.260,649.337 421.503,654.683 418.581 C 661.388 414.915,661.504 414.677,659.926 407.844 C 658.559 401.928,656.915 399.711,655.541 401.934 M239.161 404.547 C 237.523 408.140,237.720 414.155,239.561 416.783 C 241.138 419.035,245.951 422.000,248.030 422.000 C 248.774 422.000,248.931 420.893,248.490 418.750 C 247.673 414.776,241.969 402.000,241.012 402.000 C 240.632 402.000,239.799 403.146,239.161 404.547 M632.204 412.250 C 632.444 417.887,632.381 423.516,632.063 424.758 C 631.487 427.010,631.474 427.007,626.901 423.758 C 617.103 416.795,613.000 413.586,613.000 412.887 C 613.000 412.162,629.925 402.002,631.134 402.001 C 631.482 402.000,631.964 406.613,632.204 412.250 M278.251 408.871 C 282.513 411.415,285.864 413.947,285.697 414.498 C 285.530 415.049,282.492 417.428,278.947 419.785 C 275.401 422.141,271.473 425.015,270.219 426.170 C 268.964 427.325,267.614 427.947,267.219 427.552 C 266.234 426.569,265.642 410.720,266.433 406.508 C 267.204 402.396,267.495 402.454,278.251 408.871 M611.027 425.674 C 612.387 426.595,615.402 429.070,617.728 431.174 C 620.053 433.278,622.415 435.000,622.978 435.000 C 625.649 435.000,623.567 436.818,620.250 437.381 C 618.188 437.732,613.823 439.125,610.552 440.478 C 607.281 441.831,604.457 442.791,604.278 442.611 C 603.475 441.808,606.556 424.000,607.499 424.000 C 608.080 424.000,609.668 424.753,611.027 425.674 M292.525 427.750 C 293.456 429.956,295.916 443.381,295.473 443.844 C 294.749 444.603,275.091 437.431,275.342 436.500 C 275.673 435.268,289.062 426.128,290.643 426.054 C 291.272 426.024,292.119 426.788,292.525 427.750 M634.013 440.477 C 632.283 443.501,630.479 447.331,630.004 448.987 C 629.189 451.827,629.301 452.000,631.945 452.000 C 633.488 452.000,636.156 451.719,637.875 451.375 C 640.522 450.846,641.000 450.302,641.000 447.818 C 641.000 444.151,639.023 436.132,637.956 435.473 C 637.517 435.202,635.743 437.454,634.013 440.477 M260.761 436.672 C 259.487 439.000,257.876 447.022,258.167 449.581 C 258.473 452.259,258.894 452.545,263.268 453.048 C 271.428 453.986,271.636 452.759,265.113 442.172 C 262.969 438.692,261.010 436.217,260.761 436.672 M597.094 441.825 C 596.155 443.578,591.110 445.426,590.070 444.398 C 589.833 444.164,591.408 442.351,593.570 440.368 C 596.550 437.636,597.576 437.143,597.813 438.330 C 597.986 439.191,597.662 440.764,597.094 441.825 M306.924 442.408 L 309.349 445.000 307.003 445.000 C 304.099 445.000,301.000 442.320,301.000 439.810 C 301.000 437.501,303.262 438.493,306.924 442.408 M599.000 450.372 C 599.000 452.450,594.253 470.725,593.246 472.525 C 592.534 473.798,590.837 472.441,584.432 465.474 C 580.069 460.729,576.381 456.526,576.236 456.133 C 576.091 455.740,578.791 454.807,582.236 454.060 C 585.681 453.313,590.525 451.893,593.000 450.905 C 598.538 448.695,599.000 448.654,599.000 450.372 M613.000 450.313 C 613.000 451.994,607.231 457.564,606.376 456.709 C 605.330 455.663,608.052 450.147,609.849 449.670 C 612.713 448.910,613.000 448.969,613.000 450.313 M312.838 453.202 C 318.152 454.964,322.678 456.529,322.896 456.682 C 323.114 456.835,320.077 460.345,316.146 464.483 C 312.216 468.621,309.000 472.455,309.000 473.003 C 309.000 473.551,308.438 473.999,307.750 473.997 C 306.357 473.994,300.994 457.118,300.998 452.750 C 300.999 451.238,301.489 450.000,302.088 450.000 C 302.686 450.000,307.523 451.441,312.838 453.202 M291.888 453.110 C 293.898 455.267,293.712 458.509,291.645 457.342 C 289.149 455.933,287.000 453.622,287.000 452.345 C 287.000 450.314,289.672 450.732,291.888 453.110 M280.450 464.487 C 279.482 470.938,280.429 473.605,284.143 474.900 C 290.919 477.262,293.675 475.224,290.438 470.242 C 287.831 466.228,282.608 460.039,281.811 460.018 C 281.432 460.008,280.820 462.019,280.450 464.487 M335.369 476.404 C 336.281 478.550,336.800 480.534,336.523 480.811 C 335.721 481.613,326.941 482.875,321.715 482.940 C 317.197 482.997,316.991 482.886,318.025 480.954 C 318.627 479.828,321.793 475.958,325.060 472.353 C 328.327 468.748,331.040 465.281,331.089 464.649 C 331.139 464.017,331.749 465.525,332.446 468.000 C 333.142 470.475,334.458 474.257,335.369 476.404 M577.627 475.311 C 580.148 478.507,581.993 481.340,581.727 481.606 C 581.461 481.872,577.138 481.780,572.122 481.402 C 565.660 480.914,563.000 480.334,563.000 479.414 C 563.000 478.699,564.191 474.901,565.647 470.975 L 568.293 463.835 570.668 466.667 C 571.974 468.225,575.105 472.115,577.627 475.311 M286.757 471.576 C 285.773 472.561,284.000 471.050,284.000 469.227 C 284.000 467.700,284.132 467.703,285.690 469.262 C 286.620 470.192,287.100 471.233,286.757 471.576 M557.364 473.494 C 557.048 474.316,556.340 474.710,555.788 474.369 C 555.172 473.988,555.309 473.419,556.143 472.890 C 557.964 471.737,558.026 471.767,557.364 473.494 M344.500 474.000 C 344.840 474.550,344.641 475.000,344.059 475.000 C 343.477 475.000,343.000 474.550,343.000 474.000 C 343.000 473.450,343.198 473.000,343.441 473.000 C 343.684 473.000,344.160 473.450,344.500 474.000 M355.840 492.358 C 353.052 497.936,350.614 502.671,350.423 502.879 C 350.231 503.088,349.549 501.963,348.905 500.379 C 348.262 498.796,346.402 494.656,344.771 491.180 C 343.140 487.704,341.963 484.703,342.156 484.511 C 343.020 483.647,356.630 481.398,358.654 481.785 C 360.859 482.206,360.795 482.446,355.840 492.358 M550.313 482.176 C 557.964 483.341,558.112 483.417,557.490 485.895 C 556.632 489.315,550.654 501.955,549.884 501.980 C 549.545 501.991,547.811 498.741,546.030 494.758 C 544.249 490.775,541.952 486.336,540.925 484.895 C 537.908 480.658,538.745 480.415,550.313 482.176 M594.032 483.940 C 593.461 485.007,590.996 487.315,588.555 489.068 C 581.809 493.912,582.010 494.791,589.826 494.634 L 596.500 494.500 596.798 488.250 C 597.100 481.896,596.024 480.218,594.032 483.940 M302.732 483.601 C 302.148 484.185,302.728 492.241,303.535 494.750 C 303.954 496.051,311.528 496.502,314.407 495.397 C 315.713 494.896,315.483 494.197,313.035 491.226 C 311.417 489.264,310.321 487.290,310.599 486.840 C 310.877 486.391,310.490 486.259,309.739 486.547 C 308.988 486.835,307.545 486.155,306.532 485.035 C 304.613 482.915,303.746 482.588,302.732 483.601 M372.000 488.375 C 372.000 488.581,373.562 492.177,375.470 496.365 L 378.940 503.980 376.220 505.344 C 374.724 506.094,371.420 507.216,368.879 507.836 C 366.337 508.456,363.457 509.271,362.479 509.646 C 360.938 510.238,360.798 509.940,361.430 507.414 C 362.400 503.535,370.236 488.000,371.223 488.000 C 371.650 488.000,372.000 488.169,372.000 488.375 M534.558 497.356 C 540.875 510.083,540.630 510.572,529.901 506.646 L 521.303 503.500 524.901 495.753 C 526.881 491.492,528.818 488.005,529.206 488.003 C 529.595 488.001,532.003 492.210,534.558 497.356 M335.750 491.792 C 337.205 493.642,337.367 495.000,336.135 495.000 C 334.800 495.000,330.000 490.979,330.000 489.860 C 330.000 488.450,334.244 489.876,335.750 491.792 M571.000 489.418 C 571.000 489.939,564.489 494.000,563.653 494.000 C 563.318 494.000,563.555 492.875,564.182 491.500 C 565.008 489.688,566.102 489.000,568.161 489.000 C 569.722 489.000,571.000 489.188,571.000 489.418 M516.000 494.941 C 516.000 496.334,514.162 497.218,512.893 496.434 C 512.122 495.957,512.197 495.490,513.143 494.890 C 514.928 493.759,516.000 493.778,516.000 494.941 M387.000 496.000 C 388.293 496.835,388.266 496.971,386.809 496.985 C 385.879 496.993,384.840 496.550,384.500 496.000 C 383.718 494.734,385.042 494.734,387.000 496.000 M404.000 500.790 C 404.000 504.917,398.133 525.000,396.927 525.000 C 395.695 525.000,383.869 506.893,384.285 505.644 C 384.627 504.620,399.959 499.138,402.750 499.043 C 403.438 499.019,404.000 499.805,404.000 500.790 M507.277 501.707 C 511.800 503.196,515.697 504.556,515.939 504.729 C 517.298 505.705,505.370 524.409,503.490 524.249 C 502.378 524.154,497.376 509.203,496.387 503.020 C 495.594 498.057,496.028 498.004,507.277 501.707 M326.078 501.750 C 326.252 505.686,329.731 513.512,331.456 513.846 C 333.793 514.300,342.000 511.988,342.000 510.876 C 342.000 510.401,340.087 508.686,337.750 507.064 C 335.413 505.442,332.304 503.189,330.842 502.058 C 327.588 499.539,325.975 499.435,326.078 501.750 M420.250 509.435 C 422.313 512.401,424.000 515.121,424.000 515.479 C 424.000 516.288,419.085 520.461,413.066 524.763 C 408.798 527.813,408.479 527.894,408.180 526.009 C 407.858 523.979,410.904 510.854,412.876 505.769 C 414.271 502.176,415.695 502.884,420.250 509.435 M489.171 513.792 C 490.686 519.131,491.942 524.582,491.963 525.905 C 491.998 528.172,491.895 528.215,490.171 526.655 C 489.165 525.745,487.993 525.000,487.565 525.000 C 486.792 525.000,479.792 519.770,477.074 517.160 C 475.874 516.008,475.860 515.453,476.987 513.646 C 479.377 509.812,485.369 503.035,485.899 503.566 C 486.184 503.851,487.656 508.452,489.171 513.792 M431.282 507.000 C 432.097 507.000,432.094 507.306,431.267 508.133 C 429.958 509.442,427.000 508.605,427.000 506.924 C 427.000 506.297,427.710 506.059,428.582 506.393 C 429.452 506.727,430.667 507.000,431.282 507.000 M447.000 518.941 C 447.000 526.059,446.600 532.129,446.112 532.431 C 445.624 532.733,443.568 530.959,441.544 528.489 C 439.521 526.019,436.220 522.447,434.210 520.550 L 430.555 517.102 433.028 514.445 C 435.359 511.939,444.621 506.030,446.250 506.009 C 446.663 506.004,447.000 511.823,447.000 518.941 M464.171 511.625 C 466.827 513.575,469.000 515.832,469.000 516.641 C 469.000 518.028,456.248 532.673,454.846 532.896 C 453.866 533.052,452.677 512.747,453.458 509.190 C 454.083 506.344,454.341 506.179,456.739 507.091 C 458.170 507.635,461.515 509.676,464.171 511.625 M472.362 507.500 C 471.724 509.162,470.406 509.465,469.586 508.139 C 468.917 507.057,469.930 506.000,471.635 506.000 C 472.382 506.000,472.692 506.640,472.362 507.500 M379.385 515.465 C 381.590 518.831,381.437 519.144,378.250 517.783 C 373.509 515.759,372.536 514.700,374.653 513.867 C 377.469 512.759,377.653 512.821,379.385 515.465 M527.998 514.058 C 527.999 514.366,525.975 515.549,523.500 516.687 C 518.969 518.771,517.765 518.378,520.452 515.690 C 521.251 514.892,521.620 513.953,521.272 513.605 C 520.924 513.258,522.295 513.091,524.318 513.236 C 526.341 513.381,527.997 513.751,527.998 514.058 M357.000 522.308 C 357.000 526.317,358.517 530.293,360.557 531.629 C 362.623 532.983,363.221 532.928,366.919 531.041 C 370.725 529.100,372.316 527.000,369.980 527.000 C 369.419 527.000,367.282 525.941,365.230 524.646 C 360.004 521.348,357.000 520.495,357.000 522.308 M535.472 524.093 C 532.188 525.794,529.337 527.344,529.137 527.539 C 528.397 528.260,535.579 531.993,537.715 531.996 C 540.129 532.000,541.880 529.467,543.051 524.274 C 543.985 520.134,543.155 520.114,535.472 524.093 M429.965 528.934 C 431.421 531.655,431.332 531.776,428.250 531.280 C 422.843 530.410,422.319 529.956,425.000 528.463 C 428.311 526.619,428.748 526.660,429.965 528.934 M474.685 528.140 L 477.500 529.281 475.000 530.041 C 473.625 530.459,471.709 530.845,470.742 530.900 C 469.230 530.986,469.158 530.720,470.232 529.000 C 470.919 527.900,471.569 527.000,471.675 527.000 C 471.782 527.000,473.137 527.513,474.685 528.140 M510.421 532.979 C 509.882 533.518,506.770 535.045,503.506 536.373 C 500.242 537.702,497.445 539.173,497.292 539.644 C 496.934 540.745,502.624 544.000,504.907 544.000 C 506.964 544.000,510.135 540.750,512.343 536.377 C 514.236 532.628,512.984 530.416,510.421 532.979 M387.000 534.350 C 387.000 536.921,392.944 544.000,395.102 544.000 C 397.284 544.000,403.000 541.046,403.000 539.918 C 403.000 539.196,389.559 533.000,387.991 533.000 C 387.446 533.000,387.000 533.607,387.000 534.350 M612.540 543.740 C 609.673 546.832,609.318 549.189,611.452 550.960 C 613.660 552.792,617.000 551.289,617.000 548.464 C 617.000 546.740,617.423 546.225,618.500 546.638 C 620.584 547.438,620.378 549.143,617.716 553.102 C 615.172 556.885,611.991 557.899,610.040 555.548 C 608.245 553.385,606.000 553.617,606.000 555.965 C 606.000 560.649,615.186 561.544,619.191 557.250 C 624.214 551.865,625.279 547.271,622.443 543.223 C 620.225 540.056,615.739 540.290,612.540 543.740 M423.000 543.650 C 423.000 545.068,430.722 552.916,432.173 552.973 C 433.551 553.028,439.000 547.770,439.000 546.386 C 439.000 544.534,435.915 543.429,428.750 542.716 C 424.043 542.248,423.000 542.418,423.000 543.650 M468.082 543.372 C 464.552 543.992,461.490 545.022,461.278 545.661 C 461.066 546.299,462.267 548.227,463.947 549.946 C 466.631 552.691,467.273 552.927,469.250 551.890 C 470.488 551.241,473.104 548.991,475.064 546.891 C 477.674 544.093,478.254 542.928,477.232 542.535 C 476.464 542.241,475.536 542.055,475.168 542.122 C 474.801 542.189,471.612 542.752,468.082 543.372 " stroke="none" fill="black" fill-rule="evenodd">

</path></svg>
