<svg id="svg" version="1.1" width="621" height="232" viewBox="0 0 621 232" xmlns="http://www.w3.org/2000/svg"><path d="M216.667 17.667 C 215.542 18.792,215.872 225.803,217.000 226.500 C 217.550 226.840,218.002 226.529,218.005 225.809 C 218.173 179.827,217.917 17.583,217.676 17.343 C 217.488 17.154,217.033 17.300,216.667 17.667 M435.667 17.667 C 434.540 18.794,434.871 227.000,436.000 227.000 C 436.660 227.000,437.000 191.333,437.000 122.000 C 437.000 64.250,436.850 17.000,436.667 17.000 C 436.483 17.000,436.033 17.300,435.667 17.667 M315.023 30.472 C 313.688 32.081,313.238 40.957,314.396 42.832 C 315.685 44.918,321.800 44.242,323.068 41.874 C 324.755 38.721,322.790 35.000,319.438 35.000 C 316.288 35.000,316.613 32.654,319.828 32.180 C 321.023 32.005,322.000 31.217,322.000 30.430 C 322.000 28.510,316.624 28.543,315.023 30.472 M326.000 36.500 C 326.000 42.500,326.300 44.000,327.500 44.000 C 328.433 44.000,329.000 43.056,329.000 41.500 C 329.000 39.667,329.533 39.000,331.000 39.000 C 332.111 39.000,333.000 38.333,333.000 37.500 C 333.000 36.667,332.111 36.000,331.000 36.000 C 329.667 36.000,329.000 35.333,329.000 34.000 C 329.000 32.333,329.667 32.000,333.000 32.000 L 337.000 32.000 337.000 38.000 C 337.000 42.667,337.333 44.000,338.500 44.000 C 339.667 44.000,340.000 42.667,340.000 38.000 C 340.000 33.333,340.333 32.000,341.500 32.000 C 342.325 32.000,343.000 31.325,343.000 30.500 C 343.000 29.284,341.389 29.000,334.500 29.000 L 326.000 29.000 326.000 36.500 M320.325 38.658 C 321.229 39.562,318.988 42.111,317.887 41.430 C 316.508 40.578,316.844 38.000,318.333 38.000 C 319.067 38.000,319.963 38.296,320.325 38.658 M89.942 42.910 C 85.189 44.423,82.519 46.209,77.000 51.566 C 70.056 58.307,62.280 61.925,53.082 62.696 C 47.481 63.166,45.640 63.754,43.867 65.642 C 41.889 67.747,40.773 68.000,33.472 68.000 C 26.210 68.000,25.000 68.271,22.686 70.415 C 19.239 73.610,18.682 76.304,19.197 87.287 C 19.691 97.804,21.590 102.537,27.742 108.579 C 31.572 112.342,40.101 116.973,43.233 116.990 C 44.317 116.996,45.955 118.966,47.606 122.250 C 51.739 130.469,56.687 136.643,63.090 141.570 C 85.022 158.446,112.520 156.586,132.051 136.907 C 136.069 132.858,139.742 127.943,141.551 124.195 C 144.273 118.553,144.879 117.959,149.439 116.460 C 159.320 113.211,166.367 106.576,169.388 97.679 C 171.503 91.447,171.563 76.990,169.490 72.980 C 167.337 68.818,165.162 68.000,156.246 68.000 C 149.222 68.000,148.138 67.744,146.323 65.657 C 144.658 63.742,142.947 63.202,136.950 62.699 C 127.732 61.926,119.069 57.861,113.124 51.517 C 110.780 49.016,107.195 46.120,105.158 45.080 C 100.723 42.818,93.478 41.785,89.942 42.910 M280.418 42.969 C 279.274 43.432,277.097 45.284,275.582 47.085 C 273.323 49.770,272.902 51.091,273.243 54.429 C 273.472 56.668,273.988 59.232,274.390 60.127 C 274.965 61.409,274.377 61.894,271.620 62.411 C 269.482 62.813,267.114 64.264,265.533 66.143 C 262.984 69.173,262.950 69.421,263.223 83.359 L 263.500 97.500 267.183 97.806 C 271.490 98.165,271.571 98.395,272.500 113.000 C 272.832 118.225,273.322 123.647,273.587 125.048 C 273.992 127.186,273.500 127.868,270.528 129.285 C 266.412 131.248,263.009 136.260,263.004 140.368 C 262.998 144.789,269.241 150.433,276.458 152.531 C 290.850 156.715,308.476 148.503,306.575 138.500 C 306.041 135.690,299.934 128.811,297.148 127.883 C 296.161 127.554,296.123 125.046,296.966 115.983 C 298.683 97.532,298.480 98.165,302.784 97.808 L 306.500 97.500 306.777 83.938 C 307.037 71.189,306.916 70.170,304.746 66.938 C 303.111 64.504,301.268 63.208,298.432 62.500 C 294.567 61.535,294.471 61.413,295.699 59.000 C 300.345 49.867,290.054 39.071,280.418 42.969 M364.418 42.922 C 360.299 44.681,357.000 49.838,357.000 54.518 C 357.000 56.918,357.450 59.160,358.000 59.500 C 359.923 60.689,358.965 61.595,354.531 62.780 C 347.477 64.667,346.896 66.283,347.222 83.118 L 347.500 97.500 351.121 97.803 C 354.564 98.090,354.772 98.316,355.329 102.381 C 355.651 104.733,356.222 111.415,356.598 117.230 L 357.282 127.803 354.229 129.381 C 345.190 134.056,344.582 143.290,352.908 149.432 C 362.129 156.235,381.536 154.490,387.996 146.278 C 392.198 140.936,389.085 131.503,382.264 128.910 C 379.886 128.006,379.861 127.863,380.545 119.112 C 380.927 114.227,381.523 107.591,381.870 104.365 L 382.500 98.500 386.250 98.190 L 390.000 97.879 390.000 83.074 C 390.000 69.612,389.812 68.031,387.928 65.635 C 386.610 63.960,384.484 62.781,382.088 62.398 L 378.321 61.796 379.819 57.632 C 381.183 53.838,381.161 53.141,379.572 49.793 C 376.779 43.908,369.665 40.683,364.418 42.922 M524.137 46.087 C 522.905 47.235,521.274 47.935,520.512 47.643 C 519.751 47.351,517.926 48.057,516.458 49.212 C 514.259 50.941,513.882 51.886,514.318 54.570 C 514.709 56.983,514.347 58.281,512.923 59.569 C 510.446 61.811,510.467 66.053,512.971 69.236 C 514.933 71.730,514.933 71.751,512.971 73.526 C 510.804 75.488,510.352 79.952,512.140 81.740 C 512.993 82.593,512.605 83.681,510.598 86.066 C 508.002 89.151,507.603 91.500,509.674 91.500 C 510.229 91.500,518.207 84.300,527.403 75.500 C 536.600 66.700,544.771 59.355,545.562 59.177 C 548.699 58.471,546.635 61.737,539.000 69.560 C 534.600 74.067,531.000 78.234,531.000 78.819 C 531.000 82.280,534.273 80.197,543.874 70.626 C 553.961 60.570,558.000 57.986,558.000 61.590 C 558.000 62.464,553.275 68.175,547.500 74.281 C 541.725 80.386,537.000 85.760,537.000 86.222 C 537.000 86.684,537.744 87.348,538.654 87.697 C 539.788 88.133,541.416 87.102,543.837 84.416 C 560.929 65.454,569.000 58.225,569.000 61.878 C 569.000 62.361,563.598 69.224,556.996 77.128 C 545.809 90.523,543.869 93.791,546.572 94.691 C 547.161 94.887,552.745 88.962,558.980 81.524 C 565.215 74.086,570.873 68.000,571.552 68.000 C 574.919 68.000,572.939 72.127,561.914 88.083 C 553.645 100.050,550.290 105.690,551.010 106.410 C 551.730 107.130,552.596 107.109,553.824 106.342 C 555.166 105.504,556.061 105.571,557.491 106.617 C 560.553 108.856,565.071 108.306,568.195 105.313 C 569.738 103.835,571.000 102.017,571.000 101.273 C 571.000 100.529,572.800 98.208,575.000 96.115 C 578.372 92.907,579.000 91.679,579.000 88.290 C 579.000 85.737,578.244 83.308,576.927 81.635 L 574.855 79.000 577.272 79.000 C 580.444 79.000,582.365 76.660,584.448 70.263 C 586.228 64.794,589.831 61.000,593.246 61.000 C 594.988 61.000,595.139 61.446,594.523 64.750 C 594.139 66.813,593.751 68.923,593.662 69.441 C 593.573 69.958,594.235 70.543,595.134 70.742 C 596.232 70.984,597.135 70.052,597.884 67.902 C 600.412 60.650,598.604 56.622,592.895 56.784 C 588.051 56.922,583.488 61.162,580.843 67.984 C 578.315 74.504,577.093 75.727,577.779 71.051 C 578.101 68.856,577.585 67.513,575.762 65.801 C 574.414 64.535,573.004 62.247,572.628 60.715 C 571.788 57.292,568.092 55.634,564.416 57.032 C 561.238 58.240,560.000 57.567,560.000 54.632 C 560.000 50.850,557.616 48.732,552.396 47.877 C 549.703 47.436,546.037 46.782,544.248 46.424 C 542.089 45.991,540.229 46.275,538.712 47.269 C 536.611 48.646,536.208 48.575,533.658 46.383 C 530.245 43.447,527.076 43.348,524.137 46.087 M290.077 48.923 C 291.821 50.668,293.000 52.903,293.000 54.469 C 293.000 58.098,288.855 62.000,285.000 62.000 C 279.011 62.000,274.715 54.246,278.250 49.815 C 281.814 45.348,286.173 45.019,290.077 48.923 M373.849 48.289 C 378.982 52.550,375.684 62.000,369.063 62.000 C 360.195 62.000,357.760 49.833,366.000 46.689 C 367.898 45.964,372.073 46.816,373.849 48.289 M100.401 48.094 C 102.959 48.805,106.331 51.194,110.200 55.039 C 117.350 62.145,124.707 65.944,132.633 66.623 C 142.162 67.439,143.000 67.754,143.000 70.519 C 143.000 72.789,142.621 73.000,138.549 73.000 C 126.569 73.000,116.560 68.700,106.847 59.383 C 100.441 53.237,100.005 53.000,95.075 53.000 C 90.096 53.000,89.740 53.201,82.157 60.292 C 72.976 68.879,66.555 71.788,54.786 72.696 L 47.000 73.296 47.000 70.667 C 47.000 67.739,47.747 67.446,57.253 66.635 C 65.485 65.932,73.076 62.106,79.403 55.468 C 86.701 47.812,92.301 45.845,100.401 48.094 M493.039 49.189 C 489.154 53.359,491.165 61.072,496.485 62.407 C 499.398 63.138,504.442 60.897,505.379 58.455 C 508.533 50.235,498.843 42.958,493.039 49.189 M532.000 50.913 C 532.000 51.376,531.302 52.334,530.450 53.042 C 529.171 54.103,528.617 54.046,527.286 52.714 C 525.022 50.450,527.267 47.537,530.105 49.056 C 531.147 49.614,532.000 50.449,532.000 50.913 M545.859 51.250 C 546.552 51.938,548.961 52.500,551.214 52.500 C 553.466 52.500,555.476 52.985,555.680 53.578 C 556.235 55.188,550.951 57.351,549.648 56.048 C 547.251 53.651,542.493 54.911,538.500 59.000 C 534.269 63.333,532.565 63.914,531.584 61.359 C 530.758 59.207,533.347 55.341,536.223 54.432 C 537.476 54.037,539.088 52.878,539.807 51.857 C 541.314 49.715,544.038 49.442,545.859 51.250 M500.960 52.452 C 503.047 54.966,501.805 57.500,498.486 57.500 C 496.100 57.500,495.432 57.021,495.163 55.113 C 494.642 51.434,498.605 49.615,500.960 52.452 M523.702 55.196 C 525.516 56.954,527.000 59.343,527.000 60.505 C 527.000 61.667,527.661 63.491,528.468 64.559 C 530.109 66.728,530.389 68.000,529.224 68.000 C 527.877 68.000,517.894 53.980,518.520 52.967 C 519.451 51.460,520.165 51.767,523.702 55.196 M98.596 58.285 C 99.749 58.953,102.150 61.178,103.932 63.230 C 107.875 67.769,117.130 73.529,123.670 75.513 C 126.326 76.319,131.762 76.983,135.750 76.989 L 143.000 77.000 143.000 91.290 C 143.000 111.947,140.174 121.029,130.343 131.964 C 111.462 152.963,81.506 153.682,61.501 133.616 C 50.868 122.950,47.000 111.646,47.000 91.231 L 47.000 78.091 50.250 77.595 C 52.038 77.323,56.312 76.895,59.748 76.645 C 68.605 76.000,77.332 71.640,85.928 63.568 C 93.041 56.887,94.868 56.125,98.596 58.285 M522.360 66.750 C 525.570 71.042,525.754 71.620,524.265 72.750 C 523.359 73.438,522.366 73.999,522.059 73.998 C 520.830 73.994,514.834 64.078,515.454 63.075 C 516.763 60.957,518.865 62.076,522.360 66.750 M300.559 67.417 C 302.268 68.665,302.540 70.339,302.832 81.417 C 303.150 93.516,303.085 94.000,301.127 94.000 C 299.310 94.000,299.060 93.276,298.796 87.250 C 298.568 82.048,298.156 80.500,297.000 80.500 C 295.846 80.500,295.444 81.997,295.256 87.000 C 294.999 93.855,292.344 125.177,291.336 133.250 C 290.868 136.990,290.349 138.000,288.893 138.000 C 287.170 138.000,287.026 136.725,286.772 119.250 C 286.542 103.371,286.270 100.500,285.000 100.500 C 283.730 100.500,283.458 103.371,283.228 119.250 C 282.970 137.022,282.855 138.000,281.023 138.000 C 279.616 138.000,278.950 137.117,278.572 134.750 C 277.557 128.396,274.948 97.364,274.726 89.000 C 274.545 82.212,274.198 80.500,273.000 80.500 C 271.844 80.500,271.432 82.048,271.204 87.250 C 270.945 93.180,270.671 94.000,268.954 94.000 C 267.124 94.000,267.000 93.240,267.000 82.000 C 267.000 65.624,266.582 66.000,284.809 66.000 C 295.146 66.000,299.106 66.356,300.559 67.417 M384.427 67.570 C 386.739 69.881,387.116 72.423,386.792 83.488 C 386.541 92.069,386.253 93.524,384.750 93.812 C 383.255 94.098,383.000 93.346,383.000 88.655 C 383.000 82.246,382.323 80.000,380.393 80.000 C 379.340 80.000,379.000 81.648,378.998 86.750 C 378.997 90.463,378.098 102.725,377.000 114.000 C 375.902 125.275,375.003 135.287,375.002 136.250 C 375.001 137.326,374.238 138.000,373.022 138.000 C 371.131 138.000,371.032 137.172,370.772 119.250 C 370.542 103.371,370.270 100.500,369.000 100.500 C 367.731 100.500,367.458 103.320,367.227 118.790 C 366.998 134.191,366.711 137.174,365.410 137.673 C 364.561 137.999,363.478 137.868,363.004 137.383 C 361.909 136.260,359.005 102.981,358.985 91.322 C 358.976 86.470,358.577 81.880,358.096 81.122 C 356.359 78.378,355.000 81.202,355.000 87.559 C 355.000 93.333,354.793 94.000,353.000 94.000 C 351.107 94.000,351.000 93.333,351.000 81.557 C 351.000 65.487,350.401 66.000,369.151 66.000 C 380.272 66.000,383.153 66.296,384.427 67.570 M42.044 87.750 C 42.068 96.412,42.464 105.448,42.924 107.828 C 43.757 112.141,43.751 112.154,41.130 111.517 C 37.245 110.573,31.498 106.532,28.719 102.789 C 25.060 97.862,24.000 93.621,24.000 83.907 C 24.000 73.015,24.956 72.000,35.223 72.000 L 42.000 72.000 42.044 87.750 M163.777 73.557 C 165.808 74.979,166.000 75.931,166.000 84.589 C 166.000 98.121,163.637 102.978,154.054 109.141 C 147.535 113.334,146.067 113.040,147.091 107.750 C 147.543 105.412,147.932 96.412,147.956 87.750 L 148.000 72.000 154.777 72.000 C 159.293 72.000,162.297 72.520,163.777 73.557 M492.571 74.571 C 489.168 77.975,491.965 85.000,496.723 85.000 C 498.817 85.000,502.000 81.173,502.000 78.655 C 502.000 73.929,495.869 71.274,492.571 74.571 M591.615 74.815 C 591.338 75.263,589.743 79.900,588.071 85.120 C 586.399 90.340,583.627 96.730,581.911 99.321 C 579.597 102.814,578.956 104.690,579.431 106.582 C 580.250 109.843,583.286 109.447,583.992 105.988 C 584.272 104.620,585.693 101.475,587.151 99.000 C 590.227 93.781,595.381 77.436,594.597 75.391 C 594.007 73.856,592.399 73.545,591.615 74.815 M518.430 76.887 C 518.731 77.374,518.348 78.296,517.578 78.935 C 516.019 80.229,514.423 78.742,515.500 77.000 C 516.265 75.762,517.700 75.706,518.430 76.887 M498.000 79.059 C 498.000 79.577,497.325 80.000,496.500 80.000 C 494.954 80.000,494.513 78.820,495.639 77.694 C 496.438 76.895,498.000 77.798,498.000 79.059 M574.799 88.447 C 574.577 90.707,573.529 92.123,570.750 93.916 C 568.236 95.538,567.000 97.080,567.000 98.596 C 567.000 103.026,561.662 105.707,559.067 102.580 C 558.120 101.439,559.198 99.268,564.558 91.528 C 571.032 82.176,571.283 81.946,573.162 83.647 C 574.449 84.812,574.997 86.419,574.799 88.447 M61.153 85.782 C 59.115 86.462,59.922 89.020,62.482 89.993 C 69.976 92.842,120.024 92.842,127.518 89.993 C 130.033 89.037,130.896 86.465,128.923 85.808 C 128.330 85.610,122.818 86.052,116.673 86.790 C 105.410 88.143,78.476 87.794,67.403 86.153 C 64.600 85.738,61.787 85.571,61.153 85.782 M593.637 90.506 C 590.958 93.185,590.651 96.055,592.743 98.870 C 595.558 102.658,600.142 102.906,602.884 99.420 C 604.048 97.941,605.000 95.891,605.000 94.865 C 605.000 90.151,597.044 87.099,593.637 90.506 M500.741 95.750 C 499.292 97.263,497.167 100.627,496.017 103.227 C 494.867 105.827,492.368 109.143,490.463 110.596 C 486.683 113.479,486.190 114.752,488.510 115.642 C 490.861 116.544,496.973 111.229,498.987 106.531 C 499.986 104.201,502.232 100.666,503.979 98.677 C 508.797 93.190,505.793 90.474,500.741 95.750 M600.334 94.427 C 601.096 96.414,598.269 98.669,596.825 97.225 C 595.444 95.844,596.478 93.000,598.362 93.000 C 599.145 93.000,600.032 93.642,600.334 94.427 M60.189 102.750 C 60.883 106.377,78.913 110.020,95.974 109.980 C 112.211 109.942,130.000 106.224,130.000 102.868 C 130.000 100.448,128.258 100.488,117.329 103.155 C 110.511 104.819,105.425 105.310,95.000 105.310 C 84.575 105.310,79.489 104.819,72.671 103.155 C 61.763 100.493,59.744 100.427,60.189 102.750 M307.528 108.381 C 304.338 111.571,304.363 112.015,307.919 115.422 C 310.792 118.174,313.659 118.160,312.600 115.399 C 312.155 114.240,314.530 114.000,326.415 114.000 C 339.926 114.000,340.797 114.117,341.290 116.000 C 342.005 118.733,343.130 118.517,346.500 115.000 L 349.374 112.000 346.500 109.000 C 343.149 105.503,340.504 104.995,341.290 108.000 C 341.795 109.933,341.320 110.000,327.017 110.000 C 313.906 110.000,312.238 109.813,312.361 108.358 C 312.589 105.666,310.231 105.678,307.528 108.381 M545.557 111.223 C 543.477 114.191,543.541 118.886,545.671 119.704 C 546.591 120.057,551.653 119.877,556.921 119.304 C 567.758 118.125,569.230 118.382,568.803 121.377 C 568.559 123.086,565.965 124.514,555.500 128.697 C 534.610 137.048,527.414 139.255,522.697 138.755 C 518.968 138.361,517.356 138.990,508.250 144.398 C 501.446 148.438,498.000 151.075,498.000 152.242 C 498.000 153.209,498.535 154.000,499.190 154.000 C 500.355 154.000,513.035 146.795,516.000 144.448 C 516.825 143.795,520.875 143.013,525.000 142.711 C 530.184 142.331,535.400 141.049,541.894 138.558 C 547.061 136.577,551.404 135.078,551.545 135.228 C 551.686 135.377,553.006 139.465,554.480 144.312 C 556.886 152.227,558.971 155.362,560.686 153.647 C 561.016 153.317,560.056 148.712,558.553 143.414 C 557.049 138.116,556.197 133.430,556.659 133.001 C 557.122 132.572,560.333 131.204,563.796 129.960 C 573.718 126.396,576.535 120.558,570.707 115.635 C 568.427 113.709,566.342 113.707,552.634 115.624 C 547.926 116.282,547.803 116.236,548.884 114.218 C 551.467 109.391,548.629 106.836,545.557 111.223 M580.040 113.806 C 576.497 117.349,576.167 120.671,579.000 124.273 C 580.100 125.671,581.000 127.307,581.000 127.908 C 581.000 130.007,585.024 133.000,587.845 133.000 C 592.644 133.000,594.174 130.241,593.668 122.504 C 593.173 114.925,591.531 112.456,586.287 111.407 C 583.591 110.868,582.596 111.251,580.040 113.806 M589.326 122.102 C 589.664 124.954,589.702 127.673,589.411 128.144 C 588.320 129.910,586.315 128.893,584.691 125.750 C 583.768 123.963,582.447 121.684,581.756 120.687 C 580.687 119.145,580.850 118.588,582.843 116.952 C 586.396 114.036,588.575 115.767,589.326 122.102 M60.678 118.656 C 58.140 121.193,61.773 123.759,72.666 127.124 C 87.158 131.600,105.004 131.283,119.970 126.282 C 128.237 123.520,131.460 121.060,129.449 119.049 C 128.773 118.373,125.984 118.995,120.971 120.936 C 111.547 124.587,98.942 126.468,89.674 125.606 C 81.917 124.885,72.035 122.573,68.044 120.546 C 64.244 118.615,61.438 117.895,60.678 118.656 M285.054 141.500 C 294.388 141.500,294.503 141.470,294.780 139.000 C 295.481 132.737,295.937 131.896,298.025 133.013 C 299.111 133.595,300.728 135.182,301.619 136.541 C 307.374 145.325,288.745 153.033,274.748 147.658 C 266.535 144.504,264.702 139.115,270.250 134.438 L 273.500 131.699 274.554 136.599 L 275.607 141.500 285.054 141.500 M359.344 140.750 C 359.869 141.597,362.964 142.000,368.952 142.000 C 378.509 142.000,379.000 141.711,379.000 136.085 C 379.000 132.187,379.868 131.770,383.137 134.098 C 385.310 135.645,386.000 136.942,386.000 139.479 C 386.000 149.363,364.737 153.376,354.348 145.452 C 349.833 142.008,349.799 138.190,354.250 134.440 L 357.500 131.701 358.035 135.601 C 358.329 137.745,358.918 140.063,359.344 140.750 M590.690 135.643 C 589.420 136.913,589.980 140.703,592.380 147.088 C 596.478 157.989,599.639 155.525,595.975 144.286 C 593.714 137.349,591.919 134.414,590.690 135.643 M554.000 181.288 C 549.470 183.567,550.354 192.000,555.122 192.000 C 556.155 192.000,557.000 192.450,557.000 193.000 C 557.000 193.550,555.617 194.000,553.927 194.000 C 551.552 194.000,550.929 194.393,551.186 195.729 C 551.715 198.475,556.613 199.726,559.818 197.936 C 564.881 195.107,563.349 187.190,557.679 186.882 C 556.087 186.795,556.308 186.591,558.500 186.125 C 562.363 185.304,563.250 181.568,559.802 180.644 C 556.797 179.839,556.902 179.827,554.000 181.288 M65.851 181.483 C 64.718 182.615,67.557 197.178,69.075 198.025 C 71.229 199.226,74.797 198.155,75.330 196.147 C 75.731 194.639,75.778 194.638,75.884 196.133 C 76.029 198.176,79.717 199.222,82.162 197.913 C 83.398 197.252,84.039 195.713,84.118 193.215 C 84.183 191.172,84.580 188.150,85.000 186.500 C 85.575 184.241,85.793 185.285,85.882 190.731 C 86.019 199.110,86.353 199.364,96.302 198.655 C 100.477 198.357,102.490 197.717,103.482 196.370 C 104.814 194.563,104.932 194.577,107.019 196.804 C 111.373 201.449,112.405 198.033,110.055 186.750 L 108.858 181.000 104.968 181.000 C 100.732 181.000,100.865 180.776,98.133 192.500 C 97.620 194.700,97.156 195.938,97.100 195.250 C 97.045 194.563,95.875 194.000,94.500 194.000 C 91.513 194.000,91.174 192.449,94.000 191.710 C 96.708 191.002,96.538 187.956,93.750 187.213 C 91.513 186.617,91.515 186.609,94.000 186.015 C 95.568 185.641,96.618 184.600,96.818 183.223 C 97.125 181.103,96.848 181.033,88.568 181.146 L 80.000 181.262 79.897 184.881 L 79.793 188.500 78.797 184.750 C 77.538 180.010,73.993 179.464,72.299 183.750 L 71.213 186.500 71.106 183.750 C 71.022 181.566,70.520 181.000,68.667 181.000 C 67.383 181.000,66.116 181.217,65.851 181.483 M113.000 189.393 C 113.000 196.143,113.311 197.906,114.590 198.396 C 116.632 199.180,118.000 198.320,118.000 196.252 C 118.000 194.942,118.409 195.062,120.089 196.865 C 122.723 199.692,124.422 199.167,124.774 195.417 C 124.925 193.813,125.303 190.660,125.614 188.411 C 126.381 182.868,124.444 181.000,117.929 181.000 L 113.000 181.000 113.000 189.393 M302.336 183.250 C 302.640 184.488,303.200 187.892,303.582 190.816 C 304.318 196.458,306.317 199.476,308.711 198.558 C 309.510 198.251,310.577 198.000,311.082 198.000 C 311.587 198.000,312.000 197.325,312.000 196.500 C 312.000 195.333,312.444 195.444,314.000 197.000 C 316.337 199.337,317.041 199.437,319.266 197.750 C 320.420 196.875,321.119 194.174,321.595 188.750 L 322.276 181.000 319.638 181.000 C 317.347 181.000,316.988 181.427,316.910 184.250 L 316.820 187.500 315.881 184.250 C 314.723 180.240,310.693 179.609,309.490 183.250 L 308.746 185.500 308.303 183.250 C 307.961 181.507,307.176 181.000,304.822 181.000 C 302.174 181.000,301.854 181.289,302.336 183.250 M324.218 186.250 C 321.823 197.684,321.821 197.717,323.476 198.352 C 324.403 198.708,325.755 198.142,326.750 196.979 C 328.713 194.686,331.000 194.371,331.000 196.393 C 331.000 198.284,333.747 199.206,335.919 198.043 C 337.053 197.436,338.049 197.449,338.680 198.080 C 339.222 198.622,340.416 198.778,341.333 198.426 C 342.707 197.898,343.000 196.301,343.000 189.327 L 343.000 180.867 340.250 181.184 C 337.575 181.491,337.486 181.704,337.000 189.000 C 336.542 195.864,336.437 196.161,335.759 192.500 C 335.351 190.300,334.542 186.813,333.962 184.750 C 332.980 181.261,332.642 181.000,329.112 181.000 C 325.342 181.000,325.311 181.032,324.218 186.250 M344.000 182.893 C 344.000 183.934,344.675 185.045,345.500 185.362 C 346.600 185.784,347.000 187.518,347.000 191.862 C 347.000 196.205,347.400 197.940,348.500 198.362 C 351.842 199.644,353.000 197.972,353.000 191.862 C 353.000 187.518,353.400 185.784,354.500 185.362 C 355.325 185.045,356.000 183.934,356.000 182.893 C 356.000 181.246,355.220 181.000,350.000 181.000 C 344.780 181.000,344.000 181.246,344.000 182.893 M516.354 184.250 C 516.671 186.037,517.229 189.863,517.594 192.750 C 517.959 195.637,518.613 198.000,519.047 198.000 C 519.481 198.000,520.502 198.256,521.316 198.568 C 522.142 198.885,523.725 198.139,524.898 196.879 C 526.519 195.139,527.000 194.983,527.000 196.195 C 527.000 198.121,530.707 199.227,533.017 197.991 C 534.640 197.122,535.969 190.759,535.991 183.750 C 535.998 181.481,535.563 181.000,533.500 181.000 C 531.485 181.000,531.000 181.496,531.000 183.559 C 531.000 185.010,530.567 185.851,530.000 185.500 C 529.450 185.160,529.000 183.979,529.000 182.875 C 529.000 181.275,528.442 180.931,526.255 181.184 C 524.120 181.430,523.368 182.167,522.873 184.500 L 522.237 187.500 522.118 184.250 C 522.011 181.305,521.708 181.000,518.889 181.000 C 515.927 181.000,515.805 181.156,516.354 184.250 M538.636 182.750 C 538.362 183.713,537.619 187.115,536.985 190.311 C 535.303 198.795,536.813 201.264,540.961 196.811 L 543.000 194.623 545.039 196.811 C 549.574 201.679,550.966 198.271,548.496 188.353 L 546.665 181.000 542.900 181.000 C 540.171 181.000,538.998 181.481,538.636 182.750 M564.000 189.327 C 564.000 195.924,564.330 197.913,565.500 198.362 C 568.115 199.365,570.000 197.912,570.000 194.893 C 570.000 193.302,570.450 192.000,571.000 192.000 C 571.550 192.000,572.000 193.070,572.000 194.378 C 572.000 197.267,574.161 199.259,576.373 198.410 C 577.698 197.902,578.000 196.217,578.000 189.327 L 578.000 180.867 575.250 181.184 C 573.090 181.432,572.432 182.090,572.184 184.250 C 572.010 185.762,571.477 187.000,571.000 187.000 C 570.523 187.000,569.990 185.762,569.816 184.250 C 569.568 182.090,568.910 181.432,566.750 181.184 L 564.000 180.867 564.000 189.327 M120.000 188.059 C 120.000 189.191,119.550 189.840,119.000 189.500 C 118.450 189.160,118.000 188.234,118.000 187.441 C 118.000 186.648,118.450 186.000,119.000 186.000 C 119.550 186.000,120.000 186.927,120.000 188.059 " stroke="none" fill="black" fill-rule="evenodd"/></svg>